<?xml version="1.0" standalone="no"?>
<!DOCTYPE svg PUBLIC "-//W3C//DTD SVG 1.1//EN" "http://www.w3.org/Graphics/SVG/1.1/DTD/svg11.dtd" >
<svg xmlns="http://www.w3.org/2000/svg">
<metadata>Generated by IcoMoon</metadata>
<defs>
<font id="musta" horiz-adv-x="1024">
<font-face units-per-em="1024" ascent="960" descent="-64" />
<missing-glyph horiz-adv-x="1024" />
<glyph unicode="&#x20;" horiz-adv-x="512" d="" />
<glyph unicode="&#xe900;" glyph-name="activity" d="M383.5 874.667c-18.543-0.215-34.225-12.224-39.911-28.866l-0.089-0.3-118.25-354.833h-139.917c-23.564 0-42.667-19.103-42.667-42.667v0c0-23.564 19.103-42.667 42.667-42.667v0h170.667c0.007 0 0.014 0 0.022 0 18.735 0 34.651 12.075 40.389 28.866l0.089 0.3 87.5 262.5 215.5-646.5c5.807-17.127 21.74-29.234 40.5-29.234s34.693 12.107 40.411 28.933l0.089 0.301 118.25 354.833h139.917c23.564 0 42.667 19.103 42.667 42.667v0c0 23.564-19.103 42.667-42.667 42.667v0h-170.667c-0.007 0-0.014 0-0.022 0-18.735 0-34.651-12.075-40.389-28.866l-0.089-0.3-87.5-262.5-215.5 646.5c-5.826 17.094-21.742 29.17-40.479 29.17-0.183 0-0.366-0.001-0.549-0.003h0.028z" />
<glyph unicode="&#xe901;" glyph-name="airplay" d="M170.667 874.667c-70.187 0-128-57.813-128-128v-426.667c0-70.187 57.813-128 128-128h42.667c23.564 0 42.667 19.103 42.667 42.667v0c0 23.564-19.103 42.667-42.667 42.667v0h-42.667c-24.070 0-42.667 18.597-42.667 42.667v426.667c0 24.070 18.597 42.667 42.667 42.667h682.667c24.070 0 42.667-18.597 42.667-42.667v-426.667c0-24.070-18.597-42.667-42.667-42.667h-42.667c-23.564 0-42.667-19.103-42.667-42.667v0c0-23.564 19.103-42.667 42.667-42.667v0h42.667c70.187 0 128 57.813 128 128v426.667c0 70.187-57.813 128-128 128h-682.667zM513.5 362.667c-0.437 0.016-0.95 0.025-1.465 0.025-13.146 0-24.903-5.944-32.73-15.292l-0.054-0.067-213.333-256c-6.159-7.346-9.9-16.901-9.9-27.329 0-23.559 19.093-42.659 42.649-42.671h426.668c23.558 0.012 42.65 19.112 42.65 42.671 0 10.428-3.741 19.983-9.954 27.395l0.054-0.066-213.333 256c-7.56 9.031-18.68 14.866-31.173 15.331l-0.077 0.002zM512 253.333l122.25-146.667h-244.5l122.25 146.667z" />
<glyph unicode="&#xe902;" glyph-name="alert-circle" d="M512 917.333c-258.7 0-469.333-210.633-469.333-469.333s210.633-469.333 469.333-469.333c252.853 0 456.775 202.185 466 452.833 2.103 4.871 3.329 10.542 3.333 16.498v0.002c-0.012 5.866-1.205 11.449-3.355 16.53l0.105-0.28c-9.086 250.774-213.139 453.083-466.083 453.083zM512 832c212.583 0 384-171.417 384-384s-171.417-384-384-384c-212.583 0-384 171.417-384 384s171.417 384 384 384zM512 661.333c-23.564 0-42.667-19.103-42.667-42.667v0-170.667c0-23.564 19.103-42.667 42.667-42.667v0c23.564 0 42.667 19.103 42.667 42.667v0 170.667c0 23.564-19.103 42.667-42.667 42.667v0zM512 320c-23.564 0-42.667-19.103-42.667-42.667v0c0-23.564 19.103-42.667 42.667-42.667v0h0.417c23.564 0 42.667 19.103 42.667 42.667v0c0 23.564-19.103 42.667-42.667 42.667v0h-0.417z" />
<glyph unicode="&#xe903;" glyph-name="alert-octagon" d="M335.333 917.333c-11.781-0.002-22.446-4.779-30.167-12.5l-250-250c-7.721-7.72-12.498-18.385-12.5-30.166v-353.334c0.002-11.781 4.779-22.446 12.5-30.167l250-250c7.72-7.721 18.385-12.498 30.166-12.5h353.334c11.781 0.002 22.446 4.779 30.167 12.5l250 250c7.721 7.72 12.498 18.385 12.5 30.166v0 353.333c-0.002 11.781-4.779 22.446-12.5 30.167l-250 250c-7.72 7.721-18.385 12.498-30.166 12.5h-353.334zM353 832h318l225-225v-318l-225-225h-318l-225 225v318l225 225zM512 661.333c-23.564 0-42.667-19.103-42.667-42.667v0-170.667c0-23.564 19.103-42.667 42.667-42.667v0c23.564 0 42.667 19.103 42.667 42.667v0 170.667c0 23.564-19.103 42.667-42.667 42.667v0zM512 320c-23.564 0-42.667-19.103-42.667-42.667v0c0-23.564 19.103-42.667 42.667-42.667v0h0.417c23.564 0 42.667 19.103 42.667 42.667v0c0 23.564-19.103 42.667-42.667 42.667v0h-0.417z" />
<glyph unicode="&#xe904;" glyph-name="alert-triangle" d="M512 877.833c-42.502 0-84.981-20.133-109.417-60.417-0.056-0.056-0.111-0.11-0.165-0.165l-0.002-0.002-361.333-603.333c-0.055-0.069-0.192-0.259-0.327-0.451l-0.089-0.133c-47.962-83.059 13.593-190.946 109.5-192 0.062 0 0.135-0.001 0.208-0.001s0.146 0 0.22 0.001h722.822c0.062 0 0.135-0.001 0.208-0.001s0.146 0 0.22 0.001h-0.011c95.907 1.054 157.462 108.941 109.5 192-0.225 0.324-0.362 0.514-0.5 0.703l0.083-0.119-361.333 603.333c-0.056 0.056-0.11 0.111-0.165 0.165l-0.002 0.002c-24.435 40.284-66.914 60.417-109.417 60.417zM512 794.917c13.847 0 27.713-7.264 36.5-21.75l360.917-602.5c17.322-29.998-1.862-63.619-36.5-64h-721.833c-34.637 0.381-53.822 34.002-36.5 64l360.917 602.5c8.787 14.486 22.653 21.75 36.5 21.75zM512 618.667c-23.564 0-42.667-19.103-42.667-42.667v0-170.667c0-23.564 19.103-42.667 42.667-42.667v0c23.564 0 42.667 19.103 42.667 42.667v0 170.667c0 23.564-19.103 42.667-42.667 42.667v0zM512 277.333c-23.564 0-42.667-19.103-42.667-42.667v0c0-23.564 19.103-42.667 42.667-42.667v0h0.417c23.564 0 42.667 19.103 42.667 42.667v0c0 23.564-19.103 42.667-42.667 42.667v0h-0.417z" />
<glyph unicode="&#xe905;" glyph-name="align-center" d="M256 576c-23.564 0-42.667-19.103-42.667-42.667v0c0-23.564 19.103-42.667 42.667-42.667v0h512c23.564 0 42.667 19.103 42.667 42.667v0c0 23.564-19.103 42.667-42.667 42.667v0h-512zM128 746.667c-23.564 0-42.667-19.103-42.667-42.667v0c0-23.564 19.103-42.667 42.667-42.667v0h768c23.564 0 42.667 19.103 42.667 42.667v0c0 23.564-19.103 42.667-42.667 42.667v0h-768zM128 405.333c-23.564 0-42.667-19.103-42.667-42.667v0c0-23.564 19.103-42.667 42.667-42.667v0h768c23.564 0 42.667 19.103 42.667 42.667v0c0 23.564-19.103 42.667-42.667 42.667v0h-768zM256 234.667c-23.564 0-42.667-19.103-42.667-42.667v0c0-23.564 19.103-42.667 42.667-42.667v0h512c23.564 0 42.667 19.103 42.667 42.667v0c0 23.564-19.103 42.667-42.667 42.667v0h-512z" />
<glyph unicode="&#xe906;" glyph-name="align-justify" d="M128 576c-23.564 0-42.667-19.103-42.667-42.667v0c0-23.564 19.103-42.667 42.667-42.667v0h768c23.564 0 42.667 19.103 42.667 42.667v0c0 23.564-19.103 42.667-42.667 42.667v0h-768zM128 746.667c-23.564 0-42.667-19.103-42.667-42.667v0c0-23.564 19.103-42.667 42.667-42.667v0h768c23.564 0 42.667 19.103 42.667 42.667v0c0 23.564-19.103 42.667-42.667 42.667v0h-768zM128 405.333c-23.564 0-42.667-19.103-42.667-42.667v0c0-23.564 19.103-42.667 42.667-42.667v0h768c23.564 0 42.667 19.103 42.667 42.667v0c0 23.564-19.103 42.667-42.667 42.667v0h-768zM128 234.667c-23.564 0-42.667-19.103-42.667-42.667v0c0-23.564 19.103-42.667 42.667-42.667v0h768c23.564 0 42.667 19.103 42.667 42.667v0c0 23.564-19.103 42.667-42.667 42.667v0h-768z" />
<glyph unicode="&#xe907;" glyph-name="align-left" d="M128 576c-23.564 0-42.667-19.103-42.667-42.667v0c0-23.564 19.103-42.667 42.667-42.667v0h597.333c23.564 0 42.667 19.103 42.667 42.667v0c0 23.564-19.103 42.667-42.667 42.667v0h-597.333zM128 746.667c-23.564 0-42.667-19.103-42.667-42.667v0c0-23.564 19.103-42.667 42.667-42.667v0h768c23.564 0 42.667 19.103 42.667 42.667v0c0 23.564-19.103 42.667-42.667 42.667v0h-768zM128 405.333c-23.564 0-42.667-19.103-42.667-42.667v0c0-23.564 19.103-42.667 42.667-42.667v0h768c23.564 0 42.667 19.103 42.667 42.667v0c0 23.564-19.103 42.667-42.667 42.667v0h-768zM128 234.667c-23.564 0-42.667-19.103-42.667-42.667v0c0-23.564 19.103-42.667 42.667-42.667v0h597.333c23.564 0 42.667 19.103 42.667 42.667v0c0 23.564-19.103 42.667-42.667 42.667v0h-597.333z" />
<glyph unicode="&#xe908;" glyph-name="align-right" d="M298.667 576c-23.564 0-42.667-19.103-42.667-42.667v0c0-23.564 19.103-42.667 42.667-42.667v0h597.333c23.564 0 42.667 19.103 42.667 42.667v0c0 23.564-19.103 42.667-42.667 42.667v0h-597.333zM128 746.667c-23.564 0-42.667-19.103-42.667-42.667v0c0-23.564 19.103-42.667 42.667-42.667v0h768c23.564 0 42.667 19.103 42.667 42.667v0c0 23.564-19.103 42.667-42.667 42.667v0h-768zM128 405.333c-23.564 0-42.667-19.103-42.667-42.667v0c0-23.564 19.103-42.667 42.667-42.667v0h768c23.564 0 42.667 19.103 42.667 42.667v0c0 23.564-19.103 42.667-42.667 42.667v0h-768zM298.667 234.667c-23.564 0-42.667-19.103-42.667-42.667v0c0-23.564 19.103-42.667 42.667-42.667v0h597.333c23.564 0 42.667 19.103 42.667 42.667v0c0 23.564-19.103 42.667-42.667 42.667v0h-597.333z" />
<glyph unicode="&#xe909;" glyph-name="anchor" d="M512 917.333c-93.751 0-170.667-76.915-170.667-170.667s76.915-170.667 170.667-170.667c87.854 0 158.404 68.354 167.25 154 2.152 4.916 3.407 10.643 3.417 16.663v0.003c-0.017 5.931-1.241 11.571-3.439 16.694l0.106-0.278c-8.722 85.772-79.389 154.25-167.333 154.25zM512 832c47.634 0 85.333-37.7 85.333-85.333s-37.7-85.333-85.333-85.333c-47.634 0-85.333 37.7-85.333 85.333s37.7 85.333 85.333 85.333zM512 661.333c-23.564 0-42.667-19.103-42.667-42.667v0-597.333c0-23.564 19.103-42.667 42.667-42.667v0c23.564 0 42.667 19.103 42.667 42.667v0 597.333c0 23.564-19.103 42.667-42.667 42.667v0zM85.333 490.667c-23.563-0.002-42.664-19.103-42.667-42.666v0c0-258.7 210.633-469.333 469.333-469.333s469.333 210.633 469.333 469.333c-0.002 23.563-19.103 42.664-42.666 42.667h-128c-23.564 0-42.667-19.103-42.667-42.667v0c0-23.564 19.103-42.667 42.667-42.667v0h76.75c-22.078-191.368-177.985-341.333-375.417-341.333s-353.338 149.966-375.417 341.333h76.75c23.564 0 42.667 19.103 42.667 42.667v0c0 23.564-19.103 42.667-42.667 42.667v0h-128z" />
<glyph unicode="&#xe90a;" glyph-name="aperture" d="M512 917.333c-258.7 0-469.333-210.633-469.333-469.333s210.633-469.333 469.333-469.333c252.853 0 456.775 202.185 466 452.833 2.103 4.871 3.329 10.542 3.333 16.498v0.002c-0.012 5.866-1.205 11.449-3.355 16.53l0.105-0.28c-9.086 250.774-213.139 453.083-466.083 453.083zM512 832c212.583 0 384-171.417 384-384s-171.417-384-384-384c-212.583 0-384 171.417-384 384s171.417 384 384 384zM612.167 661.333c-0.441 0.016-0.96 0.026-1.481 0.026-7.896 0-15.292-2.145-21.635-5.884l0.199 0.109c-12.856-7.511-21.356-21.245-21.356-36.963 0-7.836 2.112-15.178 5.798-21.489l-0.109 0.202 244.917-424.083c7.507-12.876 21.251-21.392 36.984-21.392 7.861 0 15.226 2.126 21.55 5.834l-0.201-0.109c12.841 7.515 21.33 21.24 21.33 36.948 0 7.876-2.134 15.253-5.855 21.585l0.109-0.2-244.917 424.083c-7.24 12.398-20.25 20.737-35.251 21.331l-0.082 0.003zM413.417 661.333c-23.564 0-42.667-19.103-42.667-42.667v0c0-23.564 19.103-42.667 42.667-42.667v0h489.833c23.564 0 42.667 19.103 42.667 42.667v0c0 23.564-19.103 42.667-42.667 42.667v0h-489.833zM560.583 914.75c-0.237 0.005-0.516 0.007-0.795 0.007-15.712 0-29.441-8.493-36.846-21.139l-0.109-0.201-244.917-424.083c-3.577-6.108-5.689-13.451-5.689-21.287 0-15.719 8.5-29.452 21.154-36.854l0.202-0.109c6.117-3.59 13.472-5.71 21.323-5.71 15.693 0 29.408 8.472 36.818 21.093l0.109 0.201 244.917 424.083c3.599 6.123 5.725 13.488 5.725 21.349 0 15.733-8.516 29.478-21.189 36.875l-0.203 0.109c-5.887 3.442-12.935 5.528-20.46 5.666l-0.040 0.001zM166.583 744.083c-7.193-0.331-13.839-2.393-19.618-5.776l0.202 0.109c-12.841-7.515-21.33-21.24-21.33-36.948 0-7.876 2.134-15.253 5.855-21.585l-0.109 0.2 244.917-424.083c7.52-12.821 21.234-21.293 36.927-21.293 7.85 0 15.206 2.12 21.524 5.819l-0.202-0.109c12.856 7.511 21.356 21.245 21.356 36.963 0 7.836-2.112 15.178-5.798 21.489l0.109-0.202-244.917 424.083c-7.509 12.868-21.249 21.377-36.976 21.377-0.683 0-1.361-0.016-2.036-0.048l0.095 0.004zM120.75 320c-23.564 0-42.667-19.103-42.667-42.667v0c0-23.564 19.103-42.667 42.667-42.667v0h489.833c23.564 0 42.667 19.103 42.667 42.667v0c0 23.564-19.103 42.667-42.667 42.667v0h-489.833zM709.917 490.667c-0.237 0.005-0.516 0.007-0.795 0.007-15.712 0-29.441-8.493-36.846-21.139l-0.109-0.201-244.917-424.083c-3.599-6.123-5.725-13.488-5.725-21.349 0-15.733 8.516-29.478 21.189-36.875l0.203-0.109c6.108-3.577 13.451-5.689 21.287-5.689 15.719 0 29.452 8.5 36.854 21.154l0.109 0.202 244.917 424.083c3.577 6.108 5.689 13.451 5.689 21.287 0 15.719-8.5 29.452-21.154 36.854l-0.202 0.109c-5.881 3.47-12.927 5.584-20.453 5.749l-0.047 0.001z" />
<glyph unicode="&#xe90b;" glyph-name="apple" d="M371.4 705.2c20.4 0.4 54.8-12.6 88.6-26.4 55.4-22.2 64-23.2 119.4-0.4 32.8 13.4 66.2 24.4 101.6 28 54.4 5.6 104.4-7.2 151-35.2 23-14 43.4-30.8 59.8-52.2 5.6-7.2 5.8-11.2-2.6-16.8-93-61.2-126.4-183.4-78-284.6 22.6-47.2 58.4-81.4 105.2-104 7.4-3.6 8.6-6.8 5.8-14.4-23.6-65.6-57-125.4-101.2-179.2-10.6-12.8-21.4-25.4-33.4-37.2-36.4-36.2-78.8-47.2-128.4-33.8-21.6 5.8-41.8 15.4-62.8 22.6-56.4 19.6-110.2 9.2-163.2-13.4-19.2-8.2-39-13.4-59.6-15.6-29.8-3.2-55.8 7-78.2 26.2-44.6 38-79 84.4-108.2 135-31.6 54.6-53.6 113-68.2 174.2-13.8 57.8-19.6 116.2-13 175.4 6 54.6 22.6 105.8 55.4 150.2 47.6 64.4 111.4 99.8 210 101.6zM511.8 739.2c2.8 72.8 36.8 128.4 94.6 170.6 29.8 22 63.6 34.4 99.8 41 7.8 1.4 9.8-0.8 9.8-8.4 0.6-83.2-33.8-148.8-100.2-197.2-26.8-19.6-58.6-28-92.2-27.6-9 0-13 2.4-11.8 11.8 0.4 3.2 0 6.6 0 9.8z" />
<glyph unicode="&#xe90c;" glyph-name="archive" d="M128 661.333c-23.564 0-42.667-19.103-42.667-42.667v0-554.667c0.002-23.563 19.103-42.664 42.666-42.667h768c23.563 0.002 42.664 19.103 42.667 42.666v0 554.667c0 23.564-19.103 42.667-42.667 42.667v0c-23.564 0-42.667-19.103-42.667-42.667v0-512h-682.667v512c0 23.564-19.103 42.667-42.667 42.667v0zM42.667 874.667c-23.563-0.002-42.664-19.103-42.667-42.666v0-213.333c0.002-23.563 19.103-42.664 42.666-42.667h938.667c23.563 0.002 42.664 19.103 42.667 42.666v0 213.333c-0.002 23.563-19.103 42.664-42.666 42.667h-938.667zM85.333 789.333h853.333v-128h-853.333v128zM426.667 490.667c-23.564 0-42.667-19.103-42.667-42.667v0c0-23.564 19.103-42.667 42.667-42.667v0h170.667c23.564 0 42.667 19.103 42.667 42.667v0c0 23.564-19.103 42.667-42.667 42.667v0h-170.667z" />
<glyph unicode="&#xe90d;" glyph-name="arrow-down" d="M512 789.333c-23.564 0-42.667-19.103-42.667-42.667v0-597.333c0-23.564 19.103-42.667 42.667-42.667v0c23.564 0 42.667 19.103 42.667 42.667v0 597.333c0 23.564-19.103 42.667-42.667 42.667v0zM214.583 490.667c-0.365 0.011-0.795 0.018-1.226 0.018-11.792 0-22.468-4.784-30.19-12.517v0c-7.719-7.721-12.494-18.386-12.494-30.167s4.774-22.446 12.494-30.167l298.667-298.667c7.721-7.718 18.387-12.492 30.167-12.492s22.445 4.774 30.167 12.492l298.666 298.666c7.719 7.721 12.494 18.386 12.494 30.167s-4.774 22.446-12.494 30.167v0c-7.721 7.719-18.386 12.494-30.167 12.494s-22.446-4.774-30.167-12.494l-268.5-268.5-268.5 268.5c-7.43 7.44-17.591 12.151-28.852 12.498l-0.065 0.002z" />
<glyph unicode="&#xe90e;" glyph-name="arrow-down-circle" d="M512 917.333c-258.7 0-469.333-210.633-469.333-469.333s210.633-469.333 469.333-469.333c252.853 0 456.775 202.185 466 452.833 2.103 4.871 3.329 10.542 3.333 16.498v0.002c-0.012 5.866-1.205 11.449-3.355 16.53l0.105-0.28c-9.086 250.774-213.139 453.083-466.083 453.083zM512 832c212.583 0 384-171.417 384-384s-171.417-384-384-384c-212.583 0-384 171.417-384 384s171.417 384 384 384zM342.583 490.667c-0.365 0.011-0.795 0.018-1.226 0.018-11.792 0-22.468-4.784-30.19-12.517v0c-7.719-7.721-12.494-18.386-12.494-30.167s4.774-22.446 12.494-30.167l170.667-170.667c7.721-7.718 18.387-12.492 30.167-12.492s22.445 4.774 30.167 12.492l170.666 170.666c7.719 7.721 12.494 18.386 12.494 30.167s-4.774 22.446-12.494 30.167v0c-7.721 7.719-18.386 12.494-30.167 12.494s-22.446-4.774-30.167-12.494l-140.5-140.5-140.5 140.5c-7.43 7.44-17.591 12.151-28.852 12.498l-0.065 0.002zM512 661.333c-23.564 0-42.667-19.103-42.667-42.667v0-341.333c0-23.564 19.103-42.667 42.667-42.667v0c23.564 0 42.667 19.103 42.667 42.667v0 341.333c0 23.564-19.103 42.667-42.667 42.667v0z" />
<glyph unicode="&#xe90f;" glyph-name="arrow-down-left" d="M726.583 704c-0.365 0.011-0.795 0.018-1.226 0.018-11.792 0-22.468-4.784-30.19-12.517v0l-426.667-426.667c-7.719-7.721-12.494-18.386-12.494-30.167s4.774-22.446 12.494-30.167v0c7.721-7.719 18.386-12.494 30.167-12.494s22.446 4.774 30.167 12.494l426.667 426.667c7.719 7.721 12.494 18.386 12.494 30.167s-4.774 22.446-12.494 30.167v0c-7.43 7.44-17.591 12.151-28.852 12.498l-0.065 0.002zM298.667 704c-23.564 0-42.667-19.103-42.667-42.667v0-426.667c0.002-23.563 19.103-42.664 42.666-42.667h426.667c23.564 0 42.667 19.103 42.667 42.667v0c0 23.564-19.103 42.667-42.667 42.667v0h-384v384c0 23.564-19.103 42.667-42.667 42.667v0z" />
<glyph unicode="&#xe910;" glyph-name="arrow-down-right" d="M299.917 704c-0.365 0.011-0.795 0.018-1.226 0.018-11.792 0-22.468-4.784-30.19-12.517v0c-7.719-7.721-12.494-18.386-12.494-30.167s4.774-22.446 12.494-30.167l426.667-426.667c7.721-7.719 18.386-12.494 30.167-12.494s22.446 4.774 30.167 12.494v0c7.719 7.721 12.494 18.386 12.494 30.167s-4.774 22.446-12.494 30.167l-426.667 426.667c-7.43 7.44-17.591 12.151-28.852 12.498l-0.065 0.002zM725.333 704c-23.564 0-42.667-19.103-42.667-42.667v0-384h-384c-23.564 0-42.667-19.103-42.667-42.667v0c0-23.564 19.103-42.667 42.667-42.667v0h426.667c23.563 0.002 42.664 19.103 42.667 42.666v0 426.667c0 23.564-19.103 42.667-42.667 42.667v0z" />
<glyph unicode="&#xe911;" glyph-name="arrow-left" d="M213.333 490.667c-23.564 0-42.667-19.103-42.667-42.667v0c0-23.564 19.103-42.667 42.667-42.667v0h597.333c23.564 0 42.667 19.103 42.667 42.667v0c0 23.564-19.103 42.667-42.667 42.667v0h-597.333zM513.25 789.333c-0.365 0.011-0.795 0.018-1.226 0.018-11.792 0-22.468-4.784-30.19-12.517v0l-298.667-298.667c-7.718-7.721-12.492-18.387-12.492-30.167s4.774-22.445 12.492-30.167l298.667-298.666c7.721-7.719 18.386-12.494 30.167-12.494s22.446 4.774 30.167 12.494v0c7.719 7.721 12.494 18.386 12.494 30.167s-4.774 22.446-12.494 30.167l-268.5 268.5 268.5 268.5c7.719 7.721 12.494 18.386 12.494 30.167s-4.774 22.446-12.494 30.167v0c-7.43 7.44-17.591 12.151-28.852 12.498l-0.065 0.002z" />
<glyph unicode="&#xe912;" glyph-name="arrow-left-circle" d="M512 917.333c-258.7 0-469.333-210.633-469.333-469.333s210.633-469.333 469.333-469.333c252.853 0 456.775 202.185 466 452.833 2.103 4.871 3.329 10.542 3.333 16.498v0.002c-0.012 5.866-1.205 11.449-3.355 16.53l0.105-0.28c-9.086 250.774-213.139 453.083-466.083 453.083zM512 832c212.583 0 384-171.417 384-384s-171.417-384-384-384c-212.583 0-384 171.417-384 384s171.417 384 384 384zM513.25 661.333c-0.365 0.011-0.795 0.018-1.226 0.018-11.792 0-22.468-4.784-30.19-12.517v0l-170.667-170.667c-7.718-7.721-12.492-18.387-12.492-30.167s4.774-22.445 12.492-30.167l170.667-170.666c7.721-7.719 18.386-12.494 30.167-12.494s22.446 4.774 30.167 12.494v0c7.719 7.721 12.494 18.386 12.494 30.167s-4.774 22.446-12.494 30.167l-140.5 140.5 140.5 140.5c7.719 7.721 12.494 18.386 12.494 30.167s-4.774 22.446-12.494 30.167v0c-7.43 7.44-17.591 12.151-28.852 12.498l-0.065 0.002zM341.333 490.667c-23.564 0-42.667-19.103-42.667-42.667v0c0-23.564 19.103-42.667 42.667-42.667v0h341.333c23.564 0 42.667 19.103 42.667 42.667v0c0 23.564-19.103 42.667-42.667 42.667v0h-341.333z" />
<glyph unicode="&#xe913;" glyph-name="arrow-right" d="M213.333 490.667c-23.564 0-42.667-19.103-42.667-42.667v0c0-23.564 19.103-42.667 42.667-42.667v0h597.333c23.564 0 42.667 19.103 42.667 42.667v0c0 23.564-19.103 42.667-42.667 42.667v0h-597.333zM513.25 789.333c-0.365 0.011-0.795 0.018-1.226 0.018-11.792 0-22.468-4.784-30.19-12.517v0c-7.719-7.721-12.494-18.386-12.494-30.167s4.774-22.446 12.494-30.167l268.5-268.5-268.5-268.5c-7.719-7.721-12.494-18.386-12.494-30.167s4.774-22.446 12.494-30.167v0c7.721-7.719 18.386-12.494 30.167-12.494s22.446 4.774 30.167 12.494l298.667 298.667c7.718 7.721 12.492 18.387 12.492 30.167s-4.774 22.445-12.492 30.167l-298.666 298.667c-7.43 7.44-17.591 12.151-28.852 12.498l-0.065 0.002z" />
<glyph unicode="&#xe914;" glyph-name="arrow-right-circle" d="M512 917.333c-258.7 0-469.333-210.633-469.333-469.333s210.633-469.333 469.333-469.333c252.853 0 456.775 202.185 466 452.833 2.103 4.871 3.329 10.542 3.333 16.498v0.002c-0.012 5.866-1.205 11.449-3.355 16.53l0.105-0.28c-9.086 250.774-213.139 453.083-466.083 453.083zM512 832c212.583 0 384-171.417 384-384s-171.417-384-384-384c-212.583 0-384 171.417-384 384s171.417 384 384 384zM513.25 661.333c-0.365 0.011-0.795 0.018-1.226 0.018-11.792 0-22.468-4.784-30.19-12.517v0c-7.719-7.721-12.494-18.386-12.494-30.167s4.774-22.446 12.494-30.167l140.5-140.5-140.5-140.5c-7.719-7.721-12.494-18.386-12.494-30.167s4.774-22.446 12.494-30.167v0c7.721-7.719 18.386-12.494 30.167-12.494s22.446 4.774 30.167 12.494l170.667 170.667c7.718 7.721 12.492 18.387 12.492 30.167s-4.774 22.445-12.492 30.167l-170.666 170.667c-7.43 7.44-17.591 12.151-28.852 12.498l-0.065 0.002zM341.333 490.667c-23.564 0-42.667-19.103-42.667-42.667v0c0-23.564 19.103-42.667 42.667-42.667v0h341.333c23.564 0 42.667 19.103 42.667 42.667v0c0 23.564-19.103 42.667-42.667 42.667v0h-341.333z" />
<glyph unicode="&#xe915;" glyph-name="arrow-up" d="M512 789.333c-23.564 0-42.667-19.103-42.667-42.667v0-597.333c0-23.564 19.103-42.667 42.667-42.667v0c23.564 0 42.667 19.103 42.667 42.667v0 597.333c0 23.564-19.103 42.667-42.667 42.667v0zM513.25 789.333c-0.365 0.011-0.794 0.018-1.224 0.018-11.793 0-22.469-4.784-30.192-12.517v0l-298.667-298.667c-7.719-7.721-12.494-18.386-12.494-30.167s4.774-22.446 12.494-30.167v0c7.721-7.719 18.386-12.494 30.167-12.494s22.446 4.774 30.167 12.494l268.5 268.5 268.5-268.5c7.721-7.719 18.386-12.494 30.167-12.494s22.446 4.774 30.167 12.494v0c7.719 7.721 12.494 18.386 12.494 30.167s-4.774 22.446-12.494 30.167l-298.667 298.667c-7.43 7.44-17.591 12.15-28.851 12.498l-0.065 0.002z" />
<glyph unicode="&#xe916;" glyph-name="arrow-up-circle" d="M512 917.333c-258.7 0-469.333-210.633-469.333-469.333s210.633-469.333 469.333-469.333c252.853 0 456.775 202.185 466 452.833 2.103 4.871 3.329 10.542 3.333 16.498v0.002c-0.012 5.866-1.205 11.449-3.355 16.53l0.105-0.28c-9.086 250.774-213.139 453.083-466.083 453.083zM512 832c212.583 0 384-171.417 384-384s-171.417-384-384-384c-212.583 0-384 171.417-384 384s171.417 384 384 384zM513.25 661.333c-0.365 0.011-0.794 0.018-1.224 0.018-11.793 0-22.469-4.784-30.192-12.517v0l-170.667-170.667c-7.719-7.721-12.494-18.386-12.494-30.167s4.774-22.446 12.494-30.167v0c7.721-7.719 18.386-12.494 30.167-12.494s22.446 4.774 30.167 12.494l140.5 140.5 140.5-140.5c7.721-7.719 18.386-12.494 30.167-12.494s22.446 4.774 30.167 12.494v0c7.719 7.721 12.494 18.386 12.494 30.167s-4.774 22.446-12.494 30.167l-170.667 170.667c-7.43 7.44-17.591 12.15-28.851 12.498l-0.065 0.002zM512 661.333c-23.564 0-42.667-19.103-42.667-42.667v0-341.333c0-23.564 19.103-42.667 42.667-42.667v0c23.564 0 42.667 19.103 42.667 42.667v0 341.333c0 23.564-19.103 42.667-42.667 42.667v0z" />
<glyph unicode="&#xe917;" glyph-name="arrow-up-left" d="M299.917 704c-0.365 0.011-0.795 0.018-1.226 0.018-11.792 0-22.468-4.784-30.19-12.517v0c-7.719-7.721-12.494-18.386-12.494-30.167s4.774-22.446 12.494-30.167l426.667-426.667c7.721-7.719 18.386-12.494 30.167-12.494s22.446 4.774 30.167 12.494v0c7.719 7.721 12.494 18.386 12.494 30.167s-4.774 22.446-12.494 30.167l-426.667 426.667c-7.43 7.44-17.591 12.151-28.852 12.498l-0.065 0.002zM298.667 704c-23.563-0.002-42.664-19.103-42.667-42.666v0-426.667c0-23.564 19.103-42.667 42.667-42.667v0c23.564 0 42.667 19.103 42.667 42.667v0 384h384c23.564 0 42.667 19.103 42.667 42.667v0c0 23.564-19.103 42.667-42.667 42.667v0h-426.667z" />
<glyph unicode="&#xe918;" glyph-name="arrow-up-right" d="M726.583 704c-0.365 0.011-0.795 0.018-1.226 0.018-11.792 0-22.468-4.784-30.19-12.517v0l-426.667-426.667c-7.719-7.721-12.494-18.386-12.494-30.167s4.774-22.446 12.494-30.167v0c7.721-7.719 18.386-12.494 30.167-12.494s22.446 4.774 30.167 12.494l426.667 426.667c7.719 7.721 12.494 18.386 12.494 30.167s-4.774 22.446-12.494 30.167v0c-7.43 7.44-17.591 12.151-28.852 12.498l-0.065 0.002zM298.667 704c-23.564 0-42.667-19.103-42.667-42.667v0c0-23.564 19.103-42.667 42.667-42.667v0h384v-384c0-23.564 19.103-42.667 42.667-42.667v0c23.564 0 42.667 19.103 42.667 42.667v0 426.667c-0.002 23.563-19.103 42.664-42.666 42.667h-426.667z" />
<glyph unicode="&#xe919;" glyph-name="at-sign" d="M512 661.333c-117.315 0-213.333-96.018-213.333-213.333s96.018-213.333 213.333-213.333c111.446 0 201.051 87.506 210 196.75 2.108 4.881 3.333 10.564 3.333 16.533 0 0.018 0 0.035 0 0.053v-0.003c-0.029 5.903-1.252 11.513-3.439 16.611l0.106-0.278c-8.829 109.362-98.469 197-210 197zM512 576c71.198 0 128-56.802 128-128s-56.802-128-128-128c-71.198 0-128 56.802-128 128s56.802 128 128 128zM469.667 916c-150.223-12.313-297.136-95.699-378.417-260.333-108.374-219.512-31.14-443.703 122.75-570.25s388.835-159.031 583.333-10.083c10.21 7.876 16.723 20.114 16.723 33.873 0 9.812-3.312 18.851-8.88 26.059l0.073-0.099c-7.877 10.187-20.101 16.683-33.842 16.683-9.789 0-18.808-3.297-26.008-8.84l0.1 0.074c-164.023-125.61-349.881-96.488-477.25 8.25s-191.872 281.508-100.5 466.583c91.372 185.075 270.985 241.432 431.583 204s296.654-167.322 296.667-373.917v-42.667c0-32-10.464-50.57-25.667-64.083s-37.148-21.25-59.667-21.25c-22.519 0-44.464 7.736-59.667 21.25s-25.667 32.083-25.667 64.083v213.333c0 23.564-19.103 42.667-42.667 42.667v0c-23.564 0-42.667-19.103-42.667-42.667v0-213.333c0-53.333 21.536-98.764 54.333-127.917s74.852-42.75 116.333-42.75c41.481 0 83.536 13.597 116.333 42.75s54.333 74.583 54.333 127.917v42.667c-0.015 244.979-168.628 411.773-362.667 457-48.51 11.307-98.926 15.104-149 11z" />
<glyph unicode="&#xe91a;" glyph-name="award" d="M512 960c-188.008 0-341.333-153.326-341.333-341.333s153.326-341.333 341.333-341.333c182.135 0 328.832 144.827 338 324.75 2.108 4.881 3.333 10.564 3.333 16.533 0 0.018 0 0.035 0 0.053v-0.003c-0.029 5.903-1.252 11.513-3.439 16.611l0.106-0.278c-9.041 180.041-155.78 325-338 325zM512 874.667c141.89 0 256-114.11 256-256s-114.11-256-256-256c-141.89 0-256 114.11-256 256s114.11 256 256 256zM674.083 410.417c-0.19 0.003-0.414 0.005-0.639 0.005-1.89 0-3.751-0.123-5.576-0.361l0.215 0.023c-21.018-2.876-37.039-20.714-37.039-42.294 0-1.983 0.135-3.934 0.397-5.845l-0.025 0.222 39.917-301.417-137.417 82.5c-6.258 3.806-13.824 6.059-21.917 6.059s-15.659-2.253-22.106-6.165l0.19 0.107-137.417-82.5 39.917 301c0.237 1.689 0.372 3.64 0.372 5.623 0 21.58-16.020 39.417-36.817 42.269l-0.222 0.025c-1.689 0.237-3.64 0.372-5.623 0.372-21.58 0-39.417-16.020-42.269-36.817l-0.025-0.222-51.667-388.75c-0.232-1.673-0.365-3.607-0.365-5.571 0-23.567 19.104-42.671 42.671-42.671 8.104 0 15.68 2.259 22.133 6.182l-0.189-0.107 191.417 114.833 191.417-114.833c6.264-3.816 13.84-6.075 21.944-6.075 23.567 0 42.671 19.104 42.671 42.671 0 1.964-0.133 3.898-0.39 5.791l0.024-0.221-51.667 389.167c-2.876 20.875-20.507 36.807-41.897 37h-0.020z" />
<glyph unicode="&#xe91b;" glyph-name="bar-chart" d="M512 576c-23.564 0-42.667-19.103-42.667-42.667v0-426.667c0-23.564 19.103-42.667 42.667-42.667v0c23.564 0 42.667 19.103 42.667 42.667v0 426.667c0 23.564-19.103 42.667-42.667 42.667v0zM768 832c-23.564 0-42.667-19.103-42.667-42.667v0-682.667c0-23.564 19.103-42.667 42.667-42.667v0c23.564 0 42.667 19.103 42.667 42.667v0 682.667c0 23.564-19.103 42.667-42.667 42.667v0zM256 320c-23.564 0-42.667-19.103-42.667-42.667v0-170.667c0-23.564 19.103-42.667 42.667-42.667v0c23.564 0 42.667 19.103 42.667 42.667v0 170.667c0 23.564-19.103 42.667-42.667 42.667v0z" />
<glyph unicode="&#xe91c;" glyph-name="bar-chart-random" d="M768 576c-23.564 0-42.667-19.103-42.667-42.667v0-426.667c0-23.564 19.103-42.667 42.667-42.667v0c23.564 0 42.667 19.103 42.667 42.667v0 426.667c0 23.564-19.103 42.667-42.667 42.667v0zM512 832c-23.564 0-42.667-19.103-42.667-42.667v0-682.667c0-23.564 19.103-42.667 42.667-42.667v0c23.564 0 42.667 19.103 42.667 42.667v0 682.667c0 23.564-19.103 42.667-42.667 42.667v0zM256 405.333c-23.564 0-42.667-19.103-42.667-42.667v0-256c0-23.564 19.103-42.667 42.667-42.667v0c23.564 0 42.667 19.103 42.667 42.667v0 256c0 23.564-19.103 42.667-42.667 42.667v0z" />
<glyph unicode="&#xe91d;" glyph-name="battery" d="M128 746.667c-70.174 0-128-57.826-128-128v-341.333c0-70.174 57.826-128 128-128h597.333c70.174 0 128 57.826 128 128v341.333c0 70.174-57.826 128-128 128h-597.333zM128 661.333h597.333c24.375 0 42.667-18.291 42.667-42.667v-341.333c0-24.375-18.291-42.667-42.667-42.667h-597.333c-24.375 0-42.667 18.291-42.667 42.667v341.333c0 24.375 18.291 42.667 42.667 42.667zM981.333 533.333c-23.564 0-42.667-19.103-42.667-42.667v0-85.333c0-23.564 19.103-42.667 42.667-42.667v0c23.564 0 42.667 19.103 42.667 42.667v0 85.333c0 23.564-19.103 42.667-42.667 42.667v0z" />
<glyph unicode="&#xe91e;" glyph-name="battery-charging" d="M128 746.667c-70.187 0-128-57.813-128-128v-341.333c0-70.187 57.813-128 128-128h85.333c23.564 0 42.667 19.103 42.667 42.667v0c0 23.564-19.103 42.667-42.667 42.667v0h-85.333c-24.070 0-42.667 18.597-42.667 42.667v341.333c0 24.070 18.597 42.667 42.667 42.667h136.083c23.564 0 42.667 19.103 42.667 42.667v0c0 23.564-19.103 42.667-42.667 42.667v0h-136.083zM640 746.667c-23.564 0-42.667-19.103-42.667-42.667v0c0-23.564 19.103-42.667 42.667-42.667v0h85.333c24.070 0 42.667-18.597 42.667-42.667v-341.333c0-24.070-18.597-42.667-42.667-42.667h-136.083c-23.564 0-42.667-19.103-42.667-42.667v0c0-23.564 19.103-42.667 42.667-42.667v0h136.083c70.187 0 128 57.813 128 128v341.333c0 70.187-57.813 128-128 128h-85.333zM981.333 533.333c-23.564 0-42.667-19.103-42.667-42.667v0-85.333c0-23.564 19.103-42.667 42.667-42.667v0c23.564 0 42.667 19.103 42.667 42.667v0 85.333c0 23.564-19.103 42.667-42.667 42.667v0zM469.333 746.667c-14.743 0-27.739-7.478-35.404-18.848l-0.096-0.152-170.667-256c-4.487-6.65-7.162-14.844-7.162-23.662 0-23.563 19.099-42.666 42.661-42.671h176.25l-126.417-189.667c-4.489-6.65-7.165-14.846-7.165-23.666 0-14.743 7.477-27.739 18.847-35.404l0.152-0.096c6.65-4.489 14.846-7.165 23.666-7.165 14.743 0 27.739 7.477 35.404 18.847l0.096 0.152 170.667 256c4.487 6.65 7.162 14.844 7.162 23.662 0 23.563-19.099 42.666-42.661 42.671h-176.25l126.417 189.667c4.489 6.65 7.165 14.846 7.165 23.666 0 14.743-7.477 27.739-18.847 35.404l-0.152 0.096c-6.65 4.489-14.846 7.166-23.667 7.167v0z" />
<glyph unicode="&#xe91f;" glyph-name="bell" d="M512 917.333c-164.444 0-298.667-134.223-298.667-298.667 0-143.238-30.394-231.597-58.75-283.583s-50.25-64.917-50.25-64.917c-11.515-7.763-18.988-20.756-18.988-35.496 0-23.561 19.095-42.662 42.654-42.671h768.001c23.56 0.009 42.655 19.11 42.655 42.671 0 14.739-7.473 27.733-18.837 35.399l-0.152 0.096c0 0-21.894 12.93-50.25 64.917s-58.75 140.345-58.75 283.583c-0.029 5.903-1.252 11.513-3.439 16.611l0.106-0.278c-8.994 156.477-136.679 282.333-295.333 282.333zM512 832c118.326 0 213.333-95.007 213.333-213.333 0.014-3.197 0.378-6.301 1.054-9.286l-0.054 0.286c1.49-149.543 33.425-251.571 68.25-315.417 6.342-11.626 7.354-7.512 13.833-16.917h-592.833c6.479 9.404 7.492 5.29 13.833 16.917 35.644 65.347 69.25 168.988 69.25 324.417 0 118.326 95.007 213.333 213.333 213.333zM439.75 106.667c-0.465 0.018-1.011 0.028-1.559 0.028-7.898 0-15.296-2.146-21.64-5.887l0.199 0.109c-12.806-7.523-21.267-21.23-21.267-36.912 0-7.89 2.142-15.281 5.876-21.621l-0.109 0.2c48.305-83.272 173.195-83.272 221.5 0 3.625 6.141 5.767 13.531 5.767 21.421 0 15.683-8.461 29.389-21.067 36.803l-0.2 0.109c-6.141 3.625-13.531 5.767-21.421 5.767-15.683 0-29.389-8.461-36.803-21.067l-0.109-0.2c-17.462-30.103-56.371-30.103-73.833 0-7.258 12.365-20.265 20.672-35.254 21.248l-0.080 0.002z" />
<glyph unicode="&#xe920;" glyph-name="bell-off" d="M439.75 106.667c-0.465 0.018-1.011 0.028-1.559 0.028-7.898 0-15.296-2.146-21.64-5.887l0.199 0.109c-12.806-7.523-21.267-21.23-21.267-36.912 0-7.89 2.142-15.281 5.876-21.621l-0.109 0.2c48.305-83.272 173.195-83.272 221.5 0 3.625 6.141 5.767 13.531 5.767 21.421 0 15.683-8.461 29.389-21.067 36.803l-0.2 0.109c-6.141 3.625-13.531 5.767-21.421 5.767-15.683 0-29.389-8.461-36.803-21.067l-0.109-0.2c-17.462-30.103-56.371-30.103-73.833 0-7.258 12.365-20.265 20.672-35.254 21.248l-0.080 0.002zM768.667 661.333c-0.2 0.003-0.436 0.005-0.672 0.005-23.332 0-42.289-18.727-42.661-41.97v-0.035c-1.215-76.049 8.375-151.879 28.417-225.25 5.112-18.248 21.596-31.407 41.154-31.407 3.977 0 7.827 0.544 11.479 1.562l-0.3-0.071c18.259 5.105 31.428 21.594 31.428 41.16 0 4.005-0.552 7.882-1.584 11.557l0.072-0.3c-17.92 65.603-26.42 133.419-25.333 201.417 0.003 0.2 0.005 0.436 0.005 0.672 0 23.332-18.727 42.289-41.97 42.661h-0.035zM265.5 735.583c-18.423-0.718-33.793-13.012-39.084-29.781l-0.082-0.302c-8.678-28.151-13.069-57.459-13-86.917-0.014-143.179-30.4-231.526-58.75-283.5-28.356-51.986-50.25-64.917-50.25-64.917-11.515-7.763-18.988-20.756-18.988-35.496 0-23.561 19.095-42.662 42.654-42.671h597.334c23.564 0 42.667 19.103 42.667 42.667v0c0 23.564-19.103 42.667-42.667 42.667v0h-509.75c6.479 9.404 7.492 5.29 13.833 16.917 35.644 65.347 69.25 168.988 69.25 324.417 0 0.012 0 0.027 0 0.042s0 0.029 0 0.044v-0.002c-0.049 20.87 3.019 41.639 9.167 61.583 1.202 3.76 1.894 8.085 1.894 12.571 0 19.065-12.504 35.209-29.759 40.679l-0.302 0.083c-3.804 1.231-8.181 1.941-12.723 1.941-0.508 0-1.013-0.009-1.517-0.026l0.073 0.002zM501.833 917.167c-52.786-1.286-106.42-16.865-155.583-49.667-11.521-7.761-18.999-20.757-18.999-35.5 0-8.821 2.677-17.016 7.262-23.818l-0.096 0.152c7.761-11.521 20.757-18.999 35.5-18.999 8.821 0 17.016 2.677 23.818 7.262l-0.152-0.096c143.871 95.989 332.007-4.797 331.75-177.75 0-0.025 0-0.054 0-0.083 0-23.535 19.055-42.619 42.579-42.667h0.005c0.025 0 0.054 0 0.083 0 23.535 0 42.619 19.055 42.667 42.579v0.005c0.263 177.305-150.476 302.442-308.833 298.583zM43.917 960c-0.365 0.011-0.795 0.018-1.226 0.018-11.792 0-22.468-4.784-30.19-12.517v0c-7.719-7.721-12.494-18.386-12.494-30.167s4.774-22.446 12.494-30.167l938.667-938.667c7.721-7.719 18.386-12.494 30.167-12.494s22.446 4.774 30.167 12.494v0c7.719 7.721 12.494 18.386 12.494 30.167s-4.774 22.446-12.494 30.167l-938.667 938.667c-7.43 7.44-17.591 12.151-28.852 12.498l-0.065 0.002z" />
<glyph unicode="&#xe921;" glyph-name="bluetooth" d="M513.25 960c-0.371 0.012-0.808 0.018-1.246 0.018-23.567 0-42.671-19.104-42.671-42.671 0-0.005 0-0.010 0-0.015v0.001-366.333l-161.833 161.833c-7.721 7.719-18.386 12.494-30.167 12.494s-22.446-4.774-30.167-12.494v0c-7.719-7.721-12.494-18.386-12.494-30.167s4.774-22.446 12.494-30.167l204.5-204.5-204.5-204.5c-7.719-7.721-12.494-18.386-12.494-30.167s4.774-22.446 12.494-30.167v0c7.721-7.719 18.386-12.494 30.167-12.494s22.446 4.774 30.167 12.494l161.833 161.833v-366.333c0.010-23.559 19.11-42.654 42.671-42.654 11.778 0 22.442 4.772 30.163 12.488l234.666 234.666c7.718 7.721 12.492 18.387 12.492 30.167s-4.774 22.445-12.492 30.167l-204.5 204.5 204.5 204.5c7.718 7.721 12.492 18.387 12.492 30.167s-4.774 22.445-12.492 30.167l-234.667 234.667c-7.43 7.44-17.591 12.15-28.851 12.498l-0.065 0.002zM554.667 814.333l131.667-131.667-131.667-131.667v263.333zM554.667 345l131.667-131.667-131.667-131.667v263.333z" />
<glyph unicode="&#xe922;" glyph-name="bold" d="M256 832c-23.563-0.002-42.664-19.103-42.667-42.666v0-341.333c0.002-23.563 19.103-42.664 42.666-42.667h341.334c117.315 0 213.333 96.018 213.333 213.333s-96.018 213.333-213.333 213.333h-341.333zM298.667 746.667h298.667c71.198 0 128-56.802 128-128s-56.802-128-128-128h-298.667v256zM256 490.667c-23.563-0.002-42.664-19.103-42.667-42.666v0-341.333c0.002-23.563 19.103-42.664 42.666-42.667h384c117.315 0 213.333 96.018 213.333 213.333s-96.018 213.333-213.333 213.333h-384zM298.667 405.333h341.333c71.198 0 128-56.802 128-128s-56.802-128-128-128h-341.333v256z" />
<glyph unicode="&#xe923;" glyph-name="book" d="M277.333 277.333c-81.969 0-149.333-67.364-149.333-149.333 0-23.564 19.103-42.667 42.667-42.667v0c23.564 0 42.667 19.103 42.667 42.667v0c0 35.852 28.148 64 64 64h576c23.564 0 42.667 19.103 42.667 42.667v0c0 23.564-19.103 42.667-42.667 42.667v0h-576zM277.333 917.333c-81.969 0-149.333-67.364-149.333-149.333v-640c0-81.969 67.364-149.333 149.333-149.333h576c23.563 0.002 42.664 19.103 42.667 42.666v0 853.333c-0.002 23.563-19.103 42.664-42.666 42.667h-576zM277.333 832h533.333v-768h-533.333c-35.852 0-64 28.148-64 64v640c0 35.852 28.148 64 64 64z" />
<glyph unicode="&#xe924;" glyph-name="bookmark" d="M298.667 874.667c-70.187 0-128-57.813-128-128v-682.667c0-0.014 0-0.030 0-0.047 0-23.567 19.104-42.671 42.671-42.671 9.317 0 17.937 2.986 24.954 8.054l-0.125-0.086 273.833 195.667 273.833-195.667c6.892-4.981 15.512-7.968 24.829-7.968 23.567 0 42.671 19.104 42.671 42.671 0 0.016 0 0.033 0 0.049v-0.003 682.667c0 70.187-57.813 128-128 128h-426.667zM298.667 789.333h426.667c24.070 0 42.667-18.597 42.667-42.667v-599.667l-231.167 165.083c-6.893 4.983-15.514 7.971-24.833 7.971s-17.94-2.987-24.959-8.057l0.125 0.086-231.167-165.083v599.667c0 24.070 18.597 42.667 42.667 42.667z" />
<glyph unicode="&#xe925;" glyph-name="book-open" d="M85.333 874.667c-23.563-0.002-42.664-19.103-42.667-42.666v0-640c0.002-23.563 19.103-42.664 42.666-42.667h298.667c47.634 0 85.333-37.7 85.333-85.333 0.34-23.306 19.312-42.068 42.667-42.068s42.327 18.762 42.666 42.036v597.365c0 117.315-96.018 213.333-213.333 213.333h-256zM128 789.333h213.333c71.198 0 128-56.802 128-128v-453.083c-25.52 15.253-53.647 26.417-85.333 26.417h-256v554.667zM682.667 874.667c-117.315 0-213.333-96.018-213.333-213.333v-597.333c0.34-23.306 19.312-42.068 42.667-42.068s42.327 18.762 42.666 42.036v0.032c0 47.634 37.7 85.333 85.333 85.333h298.667c23.563 0.002 42.664 19.103 42.667 42.666v0 640c-0.002 23.563-19.103 42.664-42.666 42.667h-256zM682.667 789.333h213.333v-554.667h-256c-31.686 0-59.813-11.164-85.333-26.417v453.083c0 71.198 56.802 128 128 128z" />
<glyph unicode="&#xe926;" glyph-name="box" d="M512 917.25c-22.053 0-44.103-5.731-63.833-17.083l-298.667-170.667c-0.298-0.14-0.353-0.167-0.408-0.195l0.241 0.112c-39.504-22.808-63.953-65.052-64-110.667 0-0.012 0-0.027 0-0.042s0-0.029 0-0.044v0.002-341.333c0-0.012 0-0.027 0-0.042s0-0.029 0-0.044v0.002c0.047-45.615 24.496-87.859 64-110.667-0.186 0.084-0.132 0.056-0.077 0.029l0.244-0.112 298.667-170.667c39.515-22.737 88.344-22.716 127.833 0.083l298.5 170.583c0.298 0.14 0.353 0.167 0.408 0.195l-0.241-0.112c39.504 22.808 63.953 65.052 64 110.667 0 0.012 0 0.027 0 0.042s0 0.029 0 0.044v-0.002 341.333c0 0.012 0 0.027 0 0.042s0 0.029 0 0.044v-0.002c-0.047 45.615-24.496 87.859-64 110.667 0.186-0.084 0.132-0.056 0.077-0.029l-0.244 0.112-298.5 170.583c-19.772 11.415-41.886 17.167-64 17.167zM490.667 826.167c13.26 7.656 29.406 7.656 42.667 0-0.186 0.084-0.132 0.056-0.077 0.029l0.244-0.112 298.5-170.583c13.224-7.635 21.29-21.568 21.333-36.833v-341.25c-0.016-15.296-8.087-29.269-21.333-36.917l-298.5-170.583c-0.298-0.14-0.353-0.167-0.408-0.195l0.241 0.112c-13.26-7.656-29.406-7.656-42.667 0 0.186-0.084 0.132-0.056 0.077-0.029l-0.244 0.112-298.5 170.583c-13.224 7.635-21.29 21.568-21.333 36.833v341.333c0.043 15.265 8.109 29.198 21.333 36.833l298.5 170.583c0.298 0.14 0.353 0.167 0.408 0.195l-0.241-0.112zM140.333 705.667c-0.251 0.005-0.547 0.008-0.843 0.008-15.679 0-29.383-8.457-36.798-21.058l-0.109-0.2c-3.612-6.132-5.746-13.509-5.746-21.385 0-15.708 8.488-29.433 21.128-36.839l0.201-0.109 372.5-215.417c6.12-3.593 13.479-5.716 21.333-5.716s15.214 2.122 21.535 5.825l-0.201-0.109 372.5 215.417c12.841 7.515 21.33 21.24 21.33 36.948 0 7.876-2.134 15.253-5.855 21.585l0.109-0.2c-7.515 12.841-21.24 21.33-36.948 21.33-7.876 0-15.253-2.134-21.585-5.855l0.2 0.109-351.083-203.167-351.083 203.167c-5.91 3.455-12.99 5.543-20.548 5.666h-0.036zM512 490.667c-23.564 0-42.667-19.103-42.667-42.667v0-430.083c0-23.564 19.103-42.667 42.667-42.667v0c23.564 0 42.667 19.103 42.667 42.667v0 430.083c0 23.564-19.103 42.667-42.667 42.667v0z" />
<glyph unicode="&#xe927;" glyph-name="briefcase" d="M170.667 704c-70.174 0-128-57.826-128-128v-426.667c0-70.174 57.826-128 128-128h682.667c70.174 0 128 57.826 128 128v426.667c0 70.174-57.826 128-128 128h-682.667zM170.667 618.667h682.667c24.375 0 42.667-18.291 42.667-42.667v-426.667c0-24.375-18.291-42.667-42.667-42.667h-682.667c-24.375 0-42.667 18.291-42.667 42.667v426.667c0 24.375 18.291 42.667 42.667 42.667zM426.667 874.667c-70.187 0-128-57.813-128-128v-682.667c0-23.564 19.103-42.667 42.667-42.667v0c23.564 0 42.667 19.103 42.667 42.667v0 682.667c0 24.070 18.597 42.667 42.667 42.667h170.667c24.070 0 42.667-18.597 42.667-42.667v-682.667c0-23.564 19.103-42.667 42.667-42.667v0c23.564 0 42.667 19.103 42.667 42.667v0 682.667c0 70.187-57.813 128-128 128h-170.667z" />
<glyph unicode="&#xe928;" glyph-name="calendar" d="M213.333 832c-70.174 0-128-57.826-128-128v-597.333c0-70.174 57.826-128 128-128h597.333c70.174 0 128 57.826 128 128v597.333c0 70.174-57.826 128-128 128h-597.333zM213.333 746.667h597.333c24.375 0 42.667-18.291 42.667-42.667v-597.333c0-24.375-18.291-42.667-42.667-42.667h-597.333c-24.375 0-42.667 18.291-42.667 42.667v597.333c0 24.375 18.291 42.667 42.667 42.667zM682.667 917.333c-23.564 0-42.667-19.103-42.667-42.667v0-170.667c0-23.564 19.103-42.667 42.667-42.667v0c23.564 0 42.667 19.103 42.667 42.667v0 170.667c0 23.564-19.103 42.667-42.667 42.667v0zM341.333 917.333c-23.564 0-42.667-19.103-42.667-42.667v0-170.667c0-23.564 19.103-42.667 42.667-42.667v0c23.564 0 42.667 19.103 42.667 42.667v0 170.667c0 23.564-19.103 42.667-42.667 42.667v0zM128 576c-23.564 0-42.667-19.103-42.667-42.667v0c0-23.564 19.103-42.667 42.667-42.667v0h768c23.564 0 42.667 19.103 42.667 42.667v0c0 23.564-19.103 42.667-42.667 42.667v0h-768z" />
<glyph unicode="&#xe929;" glyph-name="camera" d="M384 874.667c-14.743-0.001-27.739-7.479-35.404-18.848l-0.096-0.152-72.667-109h-147.833c-70.187 0-128-57.813-128-128v-469.333c0-70.187 57.813-128 128-128h768c70.187 0 128 57.813 128 128v469.333c0 70.187-57.813 128-128 128h-147.833l-72.667 109c-7.761 11.521-20.757 18.999-35.5 19h-256zM406.833 789.333h210.333l72.667-109c7.761-11.521 20.757-18.999 35.5-19h170.667c24.070 0 42.667-18.597 42.667-42.667v-469.333c0-24.070-18.597-42.667-42.667-42.667h-768c-24.070 0-42.667 18.597-42.667 42.667v469.333c0 24.070 18.597 42.667 42.667 42.667h170.667c14.743 0.001 27.739 7.479 35.404 18.848l0.096 0.152 72.667 109zM512 618.667c-117.315 0-213.333-96.018-213.333-213.333s96.018-213.333 213.333-213.333c111.446 0 201.051 87.506 210 196.75 2.108 4.881 3.333 10.564 3.333 16.533 0 0.018 0 0.035 0 0.053v-0.003c-0.029 5.903-1.252 11.513-3.439 16.611l0.106-0.278c-8.829 109.362-98.469 197-210 197zM512 533.333c71.198 0 128-56.802 128-128s-56.802-128-128-128c-71.198 0-128 56.802-128 128s56.802 128 128 128z" />
<glyph unicode="&#xe92a;" glyph-name="camera-off" d="M43.917 960c-0.365 0.011-0.795 0.018-1.226 0.018-11.792 0-22.468-4.784-30.19-12.517v0c-7.719-7.721-12.494-18.386-12.494-30.167s4.774-22.446 12.494-30.167l938.667-938.667c7.721-7.719 18.386-12.494 30.167-12.494s22.446 4.774 30.167 12.494v0c7.719 7.721 12.494 18.386 12.494 30.167s-4.774 22.446-12.494 30.167l-938.667 938.667c-7.43 7.44-17.591 12.151-28.852 12.498l-0.065 0.002zM384 874.667c-23.564 0-42.667-19.103-42.667-42.667v0c0-23.564 19.103-42.667 42.667-42.667v0h233.167l72.667-109c7.761-11.521 20.757-18.999 35.5-19h170.667c24.070 0 42.667-18.597 42.667-42.667v-398.5c0-23.564 19.103-42.667 42.667-42.667v0c23.564 0 42.667 19.103 42.667 42.667v0 398.5c0 70.187-57.813 128-128 128h-147.833l-72.667 109c-7.761 11.521-20.757 18.999-35.5 19h-256zM128 746.667c-70.187 0-128-57.813-128-128v-469.333c0-70.187 57.813-128 128-128h768c23.564 0 42.667 19.103 42.667 42.667v0c0 23.564-19.103 42.667-42.667 42.667v0h-768c-24.070 0-42.667 18.597-42.667 42.667v469.333c0 24.070 18.597 42.667 42.667 42.667h128c23.564 0 42.667 19.103 42.667 42.667v0c0 23.564-19.103 42.667-42.667 42.667v0h-128zM413.083 587.917c-8.412-0.339-16.126-3.064-22.559-7.51l0.142 0.093c-109.517-74.938-124.25-233.083-30.417-326.917s251.979-79.1 326.917 30.417c4.641 6.728 7.412 15.057 7.412 24.033 0 14.565-7.298 27.425-18.437 35.124l-0.142 0.093c-6.737 4.657-15.079 7.439-24.072 7.439-14.541 0-27.383-7.274-35.085-18.381l-0.093-0.141c-45.751-66.862-138.88-75.537-196.167-18.25s-48.612 150.416 18.25 196.167c11.249 7.795 18.522 20.637 18.522 35.178 0 8.993-2.782 17.335-7.532 24.215l0.093-0.143c-7.789 11.301-20.661 18.613-35.24 18.613-0.56 0-1.118-0.011-1.673-0.032l0.080 0.002z" />
<glyph unicode="&#xe92b;" glyph-name="cast" d="M170.667 832c-70.187 0-128-57.813-128-128v-85.333c0-23.564 19.103-42.667 42.667-42.667v0c23.564 0 42.667 19.103 42.667 42.667v0 85.333c0 24.070 18.597 42.667 42.667 42.667h682.667c24.070 0 42.667-18.597 42.667-42.667v-512c0-24.070-18.597-42.667-42.667-42.667h-256c-23.564 0-42.667-19.103-42.667-42.667v0c0-23.564 19.103-42.667 42.667-42.667v0h256c70.187 0 128 57.813 128 128v512c0 70.187-57.813 128-128 128h-682.667zM82.917 488.5c-20.879-1.217-37.655-17.276-39.982-37.721l-0.018-0.196c-0.164-1.405-0.258-3.032-0.258-4.681 0-21.893 16.49-39.935 37.727-42.384l0.198-0.019c158.877-17.67 283.913-142.707 301.583-301.583 2.467-21.435 20.509-37.924 42.402-37.924 1.649 0 3.276 0.094 4.877 0.276l-0.196-0.018c21.439 2.463 37.933 20.507 37.933 42.403 0 1.678-0.097 3.334-0.285 4.962l0.019-0.198c-22.028 198.060-178.773 354.805-376.833 376.833-1.521 0.192-3.28 0.302-5.066 0.302-0.739 0-1.474-0.019-2.203-0.056l0.102 0.004zM86.75 315.75c-0.427 0.015-0.93 0.024-1.434 0.024-20.564 0-37.73-14.548-41.768-33.914l-0.048-0.277c-0.546-2.56-0.859-5.502-0.859-8.517 0-20.565 14.549-37.731 33.915-41.768l0.277-0.048c67.163-13.697 119.386-65.92 133.083-133.083 4.086-19.643 21.252-34.192 41.817-34.192 3.015 0 5.956 0.313 8.794 0.907l-0.278-0.049c19.604 4.117 34.112 21.264 34.112 41.8 0 3.021-0.314 5.968-0.911 8.811l0.049-0.278c-20.487 100.456-99.21 179.179-199.667 199.667-2.073 0.47-4.503 0.798-6.989 0.913l-0.094 0.003zM85.333 149.333c-23.564 0-42.667-19.103-42.667-42.667v0c0-23.564 19.103-42.667 42.667-42.667v0h0.417c23.564 0 42.667 19.103 42.667 42.667v0c0 23.564-19.103 42.667-42.667 42.667v0h-0.417z" />
<glyph unicode="&#xe92c;" glyph-name="check" d="M854.583 746.667c-0.365 0.011-0.795 0.018-1.226 0.018-11.792 0-22.468-4.784-30.19-12.517v0l-439.167-439.167-183.167 183.167c-7.721 7.719-18.386 12.494-30.167 12.494s-22.446-4.774-30.167-12.494v0c-7.719-7.721-12.494-18.386-12.494-30.167s4.774-22.446 12.494-30.167l213.333-213.333c7.721-7.718 18.387-12.492 30.167-12.492s22.445 4.774 30.167 12.492l469.333 469.333c7.719 7.721 12.494 18.386 12.494 30.167s-4.774 22.446-12.494 30.167v0c-7.43 7.44-17.591 12.151-28.852 12.498l-0.065 0.002z" />
<glyph unicode="&#xe92d;" glyph-name="check-circle" d="M545.917 917.667c-154.655 12.438-297.623-55.608-390.667-164.5-124.058-145.189-162.572-366.658-36.917-560.333s343.607-248.788 526.75-194.667c183.143 54.121 336.118 218.885 336.25 449.833v39.25c0 23.564-19.103 42.667-42.667 42.667v0c-23.564 0-42.667-19.103-42.667-42.667v0-39.25c-0.111-193.922-123.8-323.294-275.083-368s-325.502-3.356-431 159.25c-105.498 162.606-72.31 338.567 30.167 458.5s271.033 180.176 448.167 101.25c5.127-2.354 11.123-3.727 17.44-3.727 17.279 0 32.16 10.272 38.868 25.043l0.109 0.268c2.326 5.1 3.682 11.061 3.682 17.339 0 17.294-10.29 32.185-25.081 38.885l-0.268 0.109c-52.739 23.499-105.532 36.604-157.083 40.75zM939.833 832c-0.341 0.010-0.742 0.015-1.145 0.015-11.791 0-22.465-4.783-30.188-12.515l-396.5-396.917-97.833 97.833c-7.721 7.719-18.386 12.494-30.167 12.494s-22.446-4.774-30.167-12.494v0c-7.719-7.721-12.494-18.386-12.494-30.167s4.774-22.446 12.494-30.167l128-128c7.721-7.718 18.387-12.492 30.167-12.492s22.445 4.774 30.167 12.492v0l426.667 427.083c7.719 7.721 12.494 18.386 12.494 30.167s-4.774 22.446-12.494 30.167v0c-7.449 7.459-17.644 12.173-28.939 12.499l-0.061 0.001z" />
<glyph unicode="&#xe92e;" glyph-name="check-square" d="M939.917 832c-0.365 0.011-0.795 0.018-1.226 0.018-11.792 0-22.468-4.784-30.19-12.517v0l-396.5-396.5-97.833 97.833c-7.721 7.719-18.386 12.494-30.167 12.494s-22.446-4.774-30.167-12.494v0c-7.719-7.721-12.494-18.386-12.494-30.167s4.774-22.446 12.494-30.167l128-128c7.721-7.718 18.387-12.492 30.167-12.492s22.445 4.774 30.167 12.492l426.666 426.666c7.719 7.721 12.494 18.386 12.494 30.167s-4.774 22.446-12.494 30.167v0c-7.43 7.44-17.591 12.151-28.852 12.498l-0.065 0.002zM213.333 874.667c-70.187 0-128-57.813-128-128v-597.333c0-70.187 57.813-128 128-128h597.333c70.187 0 128 57.813 128 128v298.667c0 23.564-19.103 42.667-42.667 42.667v0c-23.564 0-42.667-19.103-42.667-42.667v0-298.667c0-24.070-18.597-42.667-42.667-42.667h-597.333c-24.070 0-42.667 18.597-42.667 42.667v597.333c0 24.070 18.597 42.667 42.667 42.667h469.333c23.564 0 42.667 19.103 42.667 42.667v0c0 23.564-19.103 42.667-42.667 42.667v0h-469.333z" />
<glyph unicode="&#xe92f;" glyph-name="chevron-down" d="M257.25 618.667c-0.365 0.011-0.795 0.018-1.226 0.018-11.792 0-22.468-4.784-30.19-12.517v0c-7.719-7.721-12.494-18.386-12.494-30.167s4.774-22.446 12.494-30.167l256-256c7.721-7.718 18.387-12.492 30.167-12.492s22.445 4.774 30.167 12.492l256 256c7.719 7.721 12.494 18.386 12.494 30.167s-4.774 22.446-12.494 30.167v0c-7.721 7.719-18.386 12.494-30.167 12.494s-22.446-4.774-30.167-12.494l-225.833-225.833-225.833 225.833c-7.43 7.44-17.591 12.151-28.852 12.498l-0.065 0.002z" />
<glyph unicode="&#xe930;" glyph-name="chevron-left" d="M641.25 746.667c-0.365 0.011-0.795 0.018-1.226 0.018-11.792 0-22.468-4.784-30.19-12.517v0l-256-256c-7.718-7.721-12.492-18.387-12.492-30.167s4.774-22.445 12.492-30.167l256-256c7.721-7.719 18.386-12.494 30.167-12.494s22.446 4.774 30.167 12.494v0c7.719 7.721 12.494 18.386 12.494 30.167s-4.774 22.446-12.494 30.167l-225.833 225.833 225.833 225.833c7.719 7.721 12.494 18.386 12.494 30.167s-4.774 22.446-12.494 30.167v0c-7.43 7.44-17.591 12.151-28.852 12.498l-0.065 0.002z" />
<glyph unicode="&#xe931;" glyph-name="chevron-right" d="M385.25 746.667c-0.365 0.011-0.795 0.018-1.226 0.018-11.792 0-22.468-4.784-30.19-12.517v0c-7.719-7.721-12.494-18.386-12.494-30.167s4.774-22.446 12.494-30.167l225.833-225.833-225.833-225.833c-7.719-7.721-12.494-18.386-12.494-30.167s4.774-22.446 12.494-30.167v0c7.721-7.719 18.386-12.494 30.167-12.494s22.446 4.774 30.167 12.494l256 256c7.718 7.721 12.492 18.387 12.492 30.167s-4.774 22.445-12.492 30.167l-256 256c-7.43 7.44-17.591 12.151-28.852 12.498l-0.065 0.002z" />
<glyph unicode="&#xe932;" glyph-name="chevrons-down" d="M299.917 448c-0.365 0.011-0.795 0.018-1.226 0.018-11.792 0-22.468-4.784-30.19-12.517v0c-7.719-7.721-12.494-18.386-12.494-30.167s4.774-22.446 12.494-30.167l213.333-213.333c7.721-7.718 18.387-12.492 30.167-12.492s22.445 4.774 30.167 12.492l213.333 213.333c7.719 7.721 12.494 18.386 12.494 30.167s-4.774 22.446-12.494 30.167v0c-7.721 7.719-18.386 12.494-30.167 12.494s-22.446-4.774-30.167-12.494l-183.167-183.167-183.167 183.167c-7.43 7.44-17.591 12.151-28.852 12.498l-0.065 0.002zM299.917 746.667c-0.365 0.011-0.795 0.018-1.226 0.018-11.792 0-22.468-4.784-30.19-12.517v0c-7.719-7.721-12.494-18.386-12.494-30.167s4.774-22.446 12.494-30.167l213.333-213.333c7.721-7.718 18.387-12.492 30.167-12.492s22.445 4.774 30.167 12.492l213.333 213.333c7.719 7.721 12.494 18.386 12.494 30.167s-4.774 22.446-12.494 30.167v0c-7.721 7.719-18.386 12.494-30.167 12.494s-22.446-4.774-30.167-12.494l-183.167-183.167-183.167 183.167c-7.43 7.44-17.591 12.151-28.852 12.498l-0.065 0.002z" />
<glyph unicode="&#xe933;" glyph-name="chevrons-left" d="M470.583 704c-0.365 0.011-0.795 0.018-1.226 0.018-11.792 0-22.468-4.784-30.19-12.517v0l-213.333-213.333c-7.718-7.721-12.492-18.387-12.492-30.167s4.774-22.445 12.492-30.167l213.333-213.333c7.721-7.719 18.386-12.494 30.167-12.494s22.446 4.774 30.167 12.494v0c7.719 7.721 12.494 18.386 12.494 30.167s-4.774 22.446-12.494 30.167l-183.167 183.167 183.167 183.167c7.719 7.721 12.494 18.386 12.494 30.167s-4.774 22.446-12.494 30.167v0c-7.43 7.44-17.591 12.151-28.852 12.498l-0.065 0.002zM769.25 704c-0.365 0.011-0.795 0.018-1.226 0.018-11.792 0-22.468-4.784-30.19-12.517v0l-213.333-213.333c-7.718-7.721-12.492-18.387-12.492-30.167s4.774-22.445 12.492-30.167l213.333-213.333c7.721-7.719 18.386-12.494 30.167-12.494s22.446 4.774 30.167 12.494v0c7.719 7.721 12.494 18.386 12.494 30.167s-4.774 22.446-12.494 30.167l-183.167 183.167 183.167 183.167c7.719 7.721 12.494 18.386 12.494 30.167s-4.774 22.446-12.494 30.167v0c-7.43 7.44-17.591 12.151-28.852 12.498l-0.065 0.002z" />
<glyph unicode="&#xe934;" glyph-name="chevrons-right" d="M555.917 704c-0.365 0.011-0.795 0.018-1.226 0.018-11.792 0-22.468-4.784-30.19-12.517v0c-7.719-7.721-12.494-18.386-12.494-30.167s4.774-22.446 12.494-30.167l183.167-183.167-183.167-183.167c-7.719-7.721-12.494-18.386-12.494-30.167s4.774-22.446 12.494-30.167v0c7.721-7.719 18.386-12.494 30.167-12.494s22.446 4.774 30.167 12.494l213.333 213.333c7.718 7.721 12.492 18.387 12.492 30.167s-4.774 22.445-12.492 30.167l-213.333 213.333c-7.43 7.44-17.591 12.151-28.852 12.498l-0.065 0.002zM257.25 704c-0.365 0.011-0.795 0.018-1.226 0.018-11.792 0-22.468-4.784-30.19-12.517v0c-7.719-7.721-12.494-18.386-12.494-30.167s4.774-22.446 12.494-30.167l183.167-183.167-183.167-183.167c-7.719-7.721-12.494-18.386-12.494-30.167s4.774-22.446 12.494-30.167v0c7.721-7.719 18.386-12.494 30.167-12.494s22.446 4.774 30.167 12.494l213.333 213.333c7.718 7.721 12.492 18.387 12.492 30.167s-4.774 22.445-12.492 30.167l-213.333 213.333c-7.43 7.44-17.591 12.151-28.852 12.498l-0.065 0.002z" />
<glyph unicode="&#xe935;" glyph-name="chevrons-up" d="M513.25 746.667c-0.365 0.011-0.794 0.018-1.224 0.018-11.793 0-22.469-4.784-30.192-12.517v0l-213.333-213.333c-7.719-7.721-12.494-18.386-12.494-30.167s4.774-22.446 12.494-30.167v0c7.721-7.719 18.386-12.494 30.167-12.494s22.446 4.774 30.167 12.494l183.167 183.167 183.167-183.167c7.721-7.719 18.386-12.494 30.167-12.494s22.446 4.774 30.167 12.494v0c7.719 7.721 12.494 18.386 12.494 30.167s-4.774 22.446-12.494 30.167l-213.333 213.333c-7.43 7.44-17.591 12.15-28.851 12.498l-0.065 0.002zM513.25 448c-0.365 0.011-0.794 0.018-1.224 0.018-11.793 0-22.469-4.784-30.192-12.517v0l-213.333-213.333c-7.719-7.721-12.494-18.386-12.494-30.167s4.774-22.446 12.494-30.167v0c7.721-7.719 18.386-12.494 30.167-12.494s22.446 4.774 30.167 12.494l183.167 183.167 183.167-183.167c7.721-7.719 18.386-12.494 30.167-12.494s22.446 4.774 30.167 12.494v0c7.719 7.721 12.494 18.386 12.494 30.167s-4.774 22.446-12.494 30.167l-213.333 213.333c-7.43 7.44-17.591 12.15-28.851 12.498l-0.065 0.002z" />
<glyph unicode="&#xe936;" glyph-name="chevron-up" d="M513.25 618.667c-0.365 0.011-0.794 0.018-1.224 0.018-11.793 0-22.469-4.784-30.192-12.517v0l-256-256c-7.719-7.721-12.494-18.386-12.494-30.167s4.774-22.446 12.494-30.167v0c7.721-7.719 18.386-12.494 30.167-12.494s22.446 4.774 30.167 12.494l225.833 225.833 225.833-225.833c7.721-7.719 18.386-12.494 30.167-12.494s22.446 4.774 30.167 12.494v0c7.719 7.721 12.494 18.386 12.494 30.167s-4.774 22.446-12.494 30.167l-256 256c-7.43 7.44-17.591 12.15-28.851 12.498l-0.065 0.002z" />
<glyph unicode="&#xe937;" glyph-name="chrome" d="M512 917.333c-258.7 0-469.333-210.633-469.333-469.333s210.633-469.333 469.333-469.333c252.853 0 456.775 202.185 466 452.833 2.103 4.871 3.329 10.542 3.333 16.498v0.002c-0.012 5.866-1.205 11.449-3.355 16.53l0.105-0.28c-9.086 250.774-213.139 453.083-466.083 453.083zM512 832c212.583 0 384-171.417 384-384s-171.417-384-384-384c-212.583 0-384 171.417-384 384s171.417 384 384 384zM512 661.333c-117.315 0-213.333-96.018-213.333-213.333s96.018-213.333 213.333-213.333c111.446 0 201.051 87.506 210 196.75 2.108 4.881 3.333 10.564 3.333 16.533 0 0.018 0 0.035 0 0.053v-0.003c-0.029 5.903-1.252 11.513-3.439 16.611l0.106-0.278c-8.829 109.362-98.469 197-210 197zM512 576c71.198 0 128-56.802 128-128s-56.802-128-128-128c-71.198 0-128 56.802-128 128s56.802 128 128 128zM512 661.333c-23.564 0-42.667-19.103-42.667-42.667v0c0-23.564 19.103-42.667 42.667-42.667v0h391.25c23.564 0 42.667 19.103 42.667 42.667v0c0 23.564-19.103 42.667-42.667 42.667v0h-391.25zM166.583 744.083c-7.193-0.331-13.839-2.393-19.618-5.776l0.202 0.109c-12.841-7.515-21.33-21.24-21.33-36.948 0-7.876 2.134-15.253 5.855-21.585l-0.109 0.2 195.833-338.75c7.515-12.841 21.24-21.33 36.948-21.33 7.876 0 15.253 2.134 21.585 5.855l-0.2-0.109c12.821 7.52 21.293 21.234 21.293 36.927 0 7.85-2.12 15.206-5.819 21.524l0.109-0.202-195.833 338.833c-7.519 12.823-21.235 21.296-36.929 21.296-0.699 0-1.394-0.017-2.085-0.050l0.097 0.004zM660.417 405.333c-0.237 0.005-0.516 0.007-0.795 0.007-15.712 0-29.441-8.493-36.846-21.139l-0.109-0.201-195.417-338.75c-3.599-6.123-5.725-13.488-5.725-21.349 0-15.733 8.516-29.478 21.189-36.875l0.203-0.109c6.108-3.577 13.451-5.689 21.287-5.689 15.719 0 29.452 8.5 36.854 21.154l0.109 0.202 195.417 338.75c3.599 6.123 5.725 13.488 5.725 21.349 0 15.733-8.516 29.478-21.19 36.875l-0.203 0.109c-5.887 3.442-12.935 5.528-20.46 5.666l-0.040 0.001z" />
<glyph unicode="&#xe938;" glyph-name="circle" d="M512 917.333c-258.7 0-469.333-210.633-469.333-469.333s210.633-469.333 469.333-469.333c252.853 0 456.775 202.185 466 452.833 2.103 4.871 3.329 10.542 3.333 16.498v0.002c-0.012 5.866-1.205 11.449-3.355 16.53l0.105-0.28c-9.086 250.774-213.139 453.083-466.083 453.083zM512 832c212.583 0 384-171.417 384-384s-171.417-384-384-384c-212.583 0-384 171.417-384 384s171.417 384 384 384z" />
<glyph unicode="&#xe939;" glyph-name="clipboard" d="M256 832c-70.187 0-128-57.813-128-128v-597.333c0-70.187 57.813-128 128-128h512c70.187 0 128 57.813 128 128v597.333c0 70.187-57.813 128-128 128h-85.333c-23.564 0-42.667-19.103-42.667-42.667v0c0-23.564 19.103-42.667 42.667-42.667v0h85.333c24.070 0 42.667-18.597 42.667-42.667v-597.333c0-24.070-18.597-42.667-42.667-42.667h-512c-24.070 0-42.667 18.597-42.667 42.667v597.333c0 24.070 18.597 42.667 42.667 42.667h85.333c23.564 0 42.667 19.103 42.667 42.667v0c0 23.564-19.103 42.667-42.667 42.667v0h-85.333zM384 917.333c-46.537 0-85.333-38.797-85.333-85.333v-85.333c0-46.537 38.797-85.333 85.333-85.333h256c46.537 0 85.333 38.797 85.333 85.333v85.333c0 46.537-38.797 85.333-85.333 85.333h-256zM384 832h256v-85.333h-256v85.333z" />
<glyph unicode="&#xe93a;" glyph-name="clock" d="M512 917.333c-258.7 0-469.333-210.633-469.333-469.333s210.633-469.333 469.333-469.333c252.853 0 456.775 202.185 466 452.833 2.103 4.871 3.329 10.542 3.333 16.498v0.002c-0.012 5.866-1.205 11.449-3.355 16.53l0.105-0.28c-9.086 250.774-213.139 453.083-466.083 453.083zM512 832c212.583 0 384-171.417 384-384s-171.417-384-384-384c-212.583 0-384 171.417-384 384s171.417 384 384 384zM512 746.667c-23.564 0-42.667-19.103-42.667-42.667v0-256c0-0.001 0-0.002 0-0.003 0-16.609 9.489-31.001 23.341-38.052l0.242-0.112 170.667-85.333c5.56-2.842 12.128-4.507 19.086-4.507 16.611 0 31.004 9.492 38.053 23.348l0.112 0.242c2.842 5.56 4.507 12.128 4.507 19.086 0 16.611-9.492 31.004-23.348 38.053l-0.242 0.112-147.083 73.5v229.667c0 23.564-19.103 42.667-42.667 42.667v0z" />
<glyph unicode="&#xe93b;" glyph-name="close" d="M769.25 746.667c-0.365 0.011-0.795 0.018-1.226 0.018-11.792 0-22.468-4.784-30.19-12.517v0l-512-512c-7.719-7.721-12.494-18.386-12.494-30.167s4.774-22.446 12.494-30.167v0c7.721-7.719 18.386-12.494 30.167-12.494s22.446 4.774 30.167 12.494l512 512c7.719 7.721 12.494 18.386 12.494 30.167s-4.774 22.446-12.494 30.167v0c-7.43 7.44-17.591 12.151-28.852 12.498l-0.065 0.002zM257.25 746.667c-0.365 0.011-0.795 0.018-1.226 0.018-11.792 0-22.468-4.784-30.19-12.517v0c-7.719-7.721-12.494-18.386-12.494-30.167s4.774-22.446 12.494-30.167l512-512c7.721-7.719 18.386-12.494 30.167-12.494s22.446 4.774 30.167 12.494v0c7.719 7.721 12.494 18.386 12.494 30.167s-4.774 22.446-12.494 30.167l-512 512c-7.43 7.44-17.591 12.151-28.852 12.498l-0.065 0.002z" />
<glyph unicode="&#xe93c;" glyph-name="close-circle" d="M512 917.333c-258.7 0-469.333-210.633-469.333-469.333s210.633-469.333 469.333-469.333c252.853 0 456.775 202.185 466 452.833 2.103 4.871 3.329 10.542 3.333 16.498v0.002c-0.012 5.866-1.205 11.449-3.355 16.53l0.105-0.28c-9.086 250.774-213.139 453.083-466.083 453.083zM512 832c212.583 0 384-171.417 384-384s-171.417-384-384-384c-212.583 0-384 171.417-384 384s171.417 384 384 384zM641.25 618.667c-0.365 0.011-0.795 0.018-1.226 0.018-11.792 0-22.468-4.784-30.19-12.517v0l-256-256c-7.719-7.721-12.494-18.386-12.494-30.167s4.774-22.446 12.494-30.167v0c7.721-7.719 18.386-12.494 30.167-12.494s22.446 4.774 30.167 12.494l256 256c7.719 7.721 12.494 18.386 12.494 30.167s-4.774 22.446-12.494 30.167v0c-7.43 7.44-17.591 12.151-28.852 12.498l-0.065 0.002zM385.25 618.667c-0.365 0.011-0.795 0.018-1.226 0.018-11.792 0-22.468-4.784-30.19-12.517v0c-7.719-7.721-12.494-18.386-12.494-30.167s4.774-22.446 12.494-30.167l256-256c7.721-7.719 18.386-12.494 30.167-12.494s22.446 4.774 30.167 12.494v0c7.719 7.721 12.494 18.386 12.494 30.167s-4.774 22.446-12.494 30.167l-256 256c-7.43 7.44-17.591 12.151-28.852 12.498l-0.065 0.002z" />
<glyph unicode="&#xe93d;" glyph-name="close-octagon" d="M335.333 917.333c-11.781-0.002-22.446-4.779-30.167-12.5l-250-250c-7.721-7.72-12.498-18.385-12.5-30.166v-353.334c0.002-11.781 4.779-22.446 12.5-30.167l250-250c7.72-7.721 18.385-12.498 30.166-12.5h353.334c11.781 0.002 22.446 4.779 30.167 12.5l250 250c7.721 7.72 12.498 18.385 12.5 30.166v0 353.333c-0.002 11.781-4.779 22.446-12.5 30.167l-250 250c-7.72 7.721-18.385 12.498-30.166 12.5h-353.334zM353 832h318l225-225v-318l-225-225h-318l-225 225v318l225 225zM641.25 618.667c-0.365 0.011-0.795 0.018-1.226 0.018-11.792 0-22.468-4.784-30.19-12.517v0l-256-256c-7.719-7.721-12.494-18.386-12.494-30.167s4.774-22.446 12.494-30.167v0c7.721-7.719 18.386-12.494 30.167-12.494s22.446 4.774 30.167 12.494l256 256c7.719 7.721 12.494 18.386 12.494 30.167s-4.774 22.446-12.494 30.167v0c-7.43 7.44-17.591 12.151-28.852 12.498l-0.065 0.002zM385.25 618.667c-0.365 0.011-0.795 0.018-1.226 0.018-11.792 0-22.468-4.784-30.19-12.517v0c-7.719-7.721-12.494-18.386-12.494-30.167s4.774-22.446 12.494-30.167l256-256c7.721-7.719 18.386-12.494 30.167-12.494s22.446 4.774 30.167 12.494v0c7.719 7.721 12.494 18.386 12.494 30.167s-4.774 22.446-12.494 30.167l-256 256c-7.43 7.44-17.591 12.151-28.852 12.498l-0.065 0.002z" />
<glyph unicode="&#xe93e;" glyph-name="close-square" d="M213.333 874.667c-70.174 0-128-57.826-128-128v-597.333c0-70.174 57.826-128 128-128h597.333c70.174 0 128 57.826 128 128v597.333c0 70.174-57.826 128-128 128h-597.333zM213.333 789.333h597.333c24.375 0 42.667-18.291 42.667-42.667v-597.333c0-24.375-18.291-42.667-42.667-42.667h-597.333c-24.375 0-42.667 18.291-42.667 42.667v597.333c0 24.375 18.291 42.667 42.667 42.667zM385.25 618.667c-0.365 0.011-0.795 0.018-1.226 0.018-11.792 0-22.468-4.784-30.19-12.517v0c-7.719-7.721-12.494-18.386-12.494-30.167s4.774-22.446 12.494-30.167l256-256c7.721-7.719 18.386-12.494 30.167-12.494s22.446 4.774 30.167 12.494v0c7.719 7.721 12.494 18.386 12.494 30.167s-4.774 22.446-12.494 30.167l-256 256c-7.43 7.44-17.591 12.151-28.852 12.498l-0.065 0.002zM641.25 618.667c-0.365 0.011-0.795 0.018-1.226 0.018-11.792 0-22.468-4.784-30.19-12.517v0l-256-256c-7.719-7.721-12.494-18.386-12.494-30.167s4.774-22.446 12.494-30.167v0c7.721-7.719 18.386-12.494 30.167-12.494s22.446 4.774 30.167 12.494l256 256c7.719 7.721 12.494 18.386 12.494 30.167s-4.774 22.446-12.494 30.167v0c-7.43 7.44-17.591 12.151-28.852 12.498l-0.065 0.002z" />
<glyph unicode="&#xe93f;" glyph-name="cloud" d="M358.083 829.833c-103.324-5.935-205.361-52.984-278-146.833-193.704-250.264-12.57-619.236 303.917-619h384c140.88 0 256 115.121 256 256s-115.12 256-256 256h-25.833c-60.515 169.615-222.445 263.118-384.083 253.833zM364.75 747.917c133.536 8.485 268.932-73.294 308.167-225.25 4.908-18.549 21.541-32 41.315-32 0.006 0 0.013 0 0.019 0h53.749c94.762 0 170.667-75.905 170.667-170.667s-75.905-170.667-170.667-170.667h-384c-251.103-0.187-390.101 282.941-236.417 481.5 57.632 74.46 137.045 111.992 217.167 117.083z" />
<glyph unicode="&#xe940;" glyph-name="cloud-drizzle" d="M341.333 192c-23.564 0-42.667-19.103-42.667-42.667v0-85.333c0-23.564 19.103-42.667 42.667-42.667v0c23.564 0 42.667 19.103 42.667 42.667v0 85.333c0 23.564-19.103 42.667-42.667 42.667v0zM341.333 448c-23.564 0-42.667-19.103-42.667-42.667v0-85.333c0-23.564 19.103-42.667 42.667-42.667v0c23.564 0 42.667 19.103 42.667 42.667v0 85.333c0 23.564-19.103 42.667-42.667 42.667v0zM682.667 192c-23.564 0-42.667-19.103-42.667-42.667v0-85.333c0-23.564 19.103-42.667 42.667-42.667v0c23.564 0 42.667 19.103 42.667 42.667v0 85.333c0 23.564-19.103 42.667-42.667 42.667v0zM682.667 448c-23.564 0-42.667-19.103-42.667-42.667v0-85.333c0-23.564 19.103-42.667 42.667-42.667v0c23.564 0 42.667 19.103 42.667 42.667v0 85.333c0 23.564-19.103 42.667-42.667 42.667v0zM512 106.667c-23.564 0-42.667-19.103-42.667-42.667v0-85.333c0-23.564 19.103-42.667 42.667-42.667v0c23.564 0 42.667 19.103 42.667 42.667v0 85.333c0 23.564-19.103 42.667-42.667 42.667v0zM512 362.667c-23.564 0-42.667-19.103-42.667-42.667v0-85.333c0-23.564 19.103-42.667 42.667-42.667v0c23.564 0 42.667 19.103 42.667 42.667v0 85.333c0 23.564-19.103 42.667-42.667 42.667v0zM348.917 958.25c-59.593-5.165-119.173-24.467-173.917-59.917-218.973-141.8-234.802-459.476-31-622.333 7.236-5.833 16.541-9.363 26.67-9.363 13.449 0 25.445 6.223 33.266 15.947l0.064 0.083c5.833 7.236 9.363 16.541 9.363 26.67 0 13.449-6.223 25.445-15.947 33.266l-0.083 0.064c-160.258 128.061-148.104 372.497 24.083 484s400.208 22.623 451.5-176c4.908-18.549 21.541-32 41.315-32 0.006 0 0.013 0 0.019 0h53.749c95.955-0.152 151.479-62.202 166.833-135.75 15.359-73.571-10.638-152.733-98.583-191.25-15.177-6.761-25.566-21.712-25.566-39.090 0-6.177 1.313-12.048 3.674-17.348l-0.108 0.271c6.761-15.177 21.712-25.566 39.090-25.566 6.177 0 12.048 1.313 17.348 3.674l-0.271-0.108c123.574 54.121 170.375 179.259 147.917 286.833s-115.344 203.508-250.25 203.667c-0.012 0-0.027 0-0.042 0s-0.029 0-0.044 0h-24.998c-60.295 169.035-226.125 268.806-394.083 254.25z" />
<glyph unicode="&#xe941;" glyph-name="cloud-lightning" d="M417.917 957.75c-91.891 8.72-187.996-15.169-269.333-78.167-216.9-167.995-190.869-506.721 49.167-639.583 5.959-3.361 13.082-5.34 20.669-5.34 15.982 0 29.911 8.787 37.221 21.793l0.111 0.214c3.361 5.959 5.34 13.082 5.34 20.669 0 15.982-8.787 29.911-21.793 37.221l-0.214 0.111c-189.11 104.674-209.132 365.064-38.25 497.417s418.028 47.861 472.083-161.417c4.908-18.549 21.541-32 41.315-32 0.006 0 0.013 0 0.019 0h53.749c0.012 0 0.027 0 0.042 0s0.029 0 0.044 0h-0.002c108.186 0.109 161.729-72.441 169.917-153.5s-29.81-162.888-135.833-184.417c-19.643-4.086-34.192-21.252-34.192-41.817 0-3.015 0.313-5.956 0.907-8.794l-0.049 0.278c4.086-19.643 21.252-34.192 41.817-34.192 3.015 0 5.956 0.313 8.794 0.907l-0.278-0.049c146.249 29.697 215.609 159.267 203.75 276.667s-105.767 230.4-255 230.25h-25.167c-52.283 146.48-182.327 240.226-324.833 253.75zM554.667 533.333c-14.743 0-27.739-7.478-35.404-18.848l-0.096-0.152-170.667-256c-4.487-6.65-7.162-14.844-7.162-23.662 0-23.563 19.099-42.666 42.661-42.671h176.25l-126.417-189.667c-4.489-6.65-7.165-14.846-7.165-23.666 0-14.743 7.477-27.739 18.847-35.404l0.152-0.096c6.65-4.489 14.846-7.165 23.666-7.165 14.743 0 27.739 7.477 35.404 18.847l0.096 0.152 170.667 256c4.487 6.65 7.162 14.844 7.162 23.662 0 23.563-19.099 42.666-42.661 42.671h-176.25l126.417 189.667c4.489 6.65 7.165 14.846 7.165 23.666 0 14.743-7.477 27.739-18.847 35.404l-0.152 0.096c-6.65 4.489-14.846 7.166-23.667 7.167v0z" />
<glyph unicode="&#xe942;" glyph-name="cloud-off" d="M413.583 832c-0.049 0-0.107 0-0.165 0-22.244 0-40.512-17.022-42.489-38.751l-0.012-0.166c-0.105-1.123-0.165-2.429-0.165-3.749 0-22.243 17.021-40.511 38.749-42.489l0.166-0.012c126.566-11.18 231.978-100.849 263.25-224 4.847-18.625 21.508-32.155 41.332-32.167h53.751c0.012 0 0.027 0 0.042 0s0.029 0 0.044 0h-0.002c123.834 0.147 205.629-123.221 157.333-237.25-2.132-4.906-3.372-10.62-3.372-16.624 0-17.559 10.606-32.64 25.762-39.187l0.277-0.106c4.906-2.132 10.62-3.372 16.624-3.372 17.559 0 32.64 10.606 39.187 25.762l0.106 0.277c70.946 167.508-54.171 356.049-236.083 355.833h-26.083c-49.849 140.365-174.195 242.542-324.667 255.833-1.065 0.1-2.313 0.161-3.573 0.167h-0.010zM212.167 789.333c-7.188-0.206-13.876-2.158-19.714-5.444l0.214 0.111c-172.215-95.224-226.677-279.337-185.167-435s180.404-288.171 377.167-285h383.333c0.012 0 0.027 0 0.042 0s0.029 0 0.044 0h-0.002c29.684 0.035 59.097 5.206 87 15.333 16.553 6.119 28.14 21.765 28.14 40.118 0 5.22-0.937 10.221-2.653 14.844l0.096-0.295c-6.119 16.553-21.765 28.14-40.118 28.14-5.22 0-10.221-0.937-14.844-2.653l0.295 0.096c-18.602-6.752-38.293-10.227-58.083-10.25h-383.917c-0.099 0.001-0.216 0.001-0.333 0.001s-0.234 0-0.351-0.001h0.018c-158.71-2.557-260.68 98.905-293.417 221.667s5.173 261.525 144.083 338.333c13.22 7.42 22.007 21.35 22.007 37.331 0 7.586-1.98 14.71-5.451 20.883l0.111-0.214c-7.419 13.225-21.351 22.016-37.336 22.016-0.409 0-0.817-0.006-1.224-0.017l0.060 0.001zM43.917 960c-0.365 0.011-0.795 0.018-1.226 0.018-11.792 0-22.468-4.784-30.19-12.517v0c-7.719-7.721-12.494-18.386-12.494-30.167s4.774-22.446 12.494-30.167l938.667-938.667c7.721-7.719 18.386-12.494 30.167-12.494s22.446 4.774 30.167 12.494v0c7.719 7.721 12.494 18.386 12.494 30.167s-4.774 22.446-12.494 30.167l-938.667 938.667c-7.43 7.44-17.591 12.151-28.852 12.498l-0.065 0.002z" />
<glyph unicode="&#xe943;" glyph-name="cloud-rain" d="M682.667 448c-23.564 0-42.667-19.103-42.667-42.667v0-341.333c0-23.564 19.103-42.667 42.667-42.667v0c23.564 0 42.667 19.103 42.667 42.667v0 341.333c0 23.564-19.103 42.667-42.667 42.667v0zM341.333 448c-23.564 0-42.667-19.103-42.667-42.667v0-341.333c0-23.564 19.103-42.667 42.667-42.667v0c23.564 0 42.667 19.103 42.667 42.667v0 341.333c0 23.564-19.103 42.667-42.667 42.667v0zM512 362.667c-23.564 0-42.667-19.103-42.667-42.667v0-341.333c0-23.564 19.103-42.667 42.667-42.667v0c23.564 0 42.667 19.103 42.667 42.667v0 341.333c0 23.564-19.103 42.667-42.667 42.667v0zM348.917 958.25c-59.593-5.165-119.173-24.467-173.917-59.917-218.973-141.8-234.802-459.476-31-622.333 7.236-5.833 16.541-9.363 26.67-9.363 13.449 0 25.445 6.223 33.266 15.947l0.064 0.083c5.833 7.236 9.363 16.541 9.363 26.67 0 13.449-6.223 25.445-15.947 33.266l-0.083 0.064c-160.258 128.061-148.104 372.497 24.083 484s400.208 22.623 451.5-176c4.908-18.549 21.541-32 41.315-32 0.006 0 0.013 0 0.019 0h53.749c95.955-0.152 151.479-62.202 166.833-135.75 15.359-73.571-10.638-152.733-98.583-191.25-15.177-6.761-25.566-21.712-25.566-39.090 0-6.177 1.313-12.048 3.674-17.348l-0.108 0.271c6.761-15.177 21.712-25.566 39.090-25.566 6.177 0 12.048 1.313 17.348 3.674l-0.271-0.108c123.574 54.121 170.375 179.259 147.917 286.833s-115.344 203.508-250.25 203.667c-0.012 0-0.027 0-0.042 0s-0.029 0-0.044 0h-24.998c-60.295 169.035-226.125 268.806-394.083 254.25z" />
<glyph unicode="&#xe944;" glyph-name="cloud-snow" d="M348.917 915.583c-59.593-5.165-119.173-24.467-173.917-59.917-218.973-141.8-234.802-459.476-31-622.333 7.236-5.833 16.541-9.363 26.67-9.363 13.449 0 25.445 6.223 33.266 15.947l0.064 0.083c5.833 7.236 9.363 16.541 9.363 26.67 0 13.449-6.223 25.445-15.947 33.266l-0.083 0.064c-160.258 128.061-148.104 372.497 24.083 484s400.208 22.623 451.5-176c4.908-18.549 21.541-32 41.315-32 0.006 0 0.013 0 0.019 0h53.749c95.955-0.152 151.479-62.202 166.833-135.75 15.359-73.571-10.638-152.733-98.583-191.25-15.177-6.761-25.566-21.712-25.566-39.090 0-6.177 1.313-12.048 3.674-17.348l-0.108 0.271c6.761-15.177 21.712-25.566 39.090-25.566 6.177 0 12.048 1.313 17.348 3.674l-0.271-0.108c123.574 54.121 170.375 179.259 147.917 286.833s-115.344 203.508-250.25 203.667c-0.012 0-0.027 0-0.042 0s-0.029 0-0.044 0h-24.998c-60.295 169.035-226.125 268.806-394.083 254.25zM341.333 320c-23.564 0-42.667-19.103-42.667-42.667v0c0-23.564 19.103-42.667 42.667-42.667v0h0.417c23.564 0 42.667 19.103 42.667 42.667v0c0 23.564-19.103 42.667-42.667 42.667v0h-0.417zM341.333 149.333c-23.564 0-42.667-19.103-42.667-42.667v0c0-23.564 19.103-42.667 42.667-42.667v0h0.417c23.564 0 42.667 19.103 42.667 42.667v0c0 23.564-19.103 42.667-42.667 42.667v0h-0.417zM512 234.667c-23.564 0-42.667-19.103-42.667-42.667v0c0-23.564 19.103-42.667 42.667-42.667v0h0.417c23.564 0 42.667 19.103 42.667 42.667v0c0 23.564-19.103 42.667-42.667 42.667v0h-0.417zM512 64c-23.564 0-42.667-19.103-42.667-42.667v0c0-23.564 19.103-42.667 42.667-42.667v0h0.417c23.564 0 42.667 19.103 42.667 42.667v0c0 23.564-19.103 42.667-42.667 42.667v0h-0.417zM682.667 320c-23.564 0-42.667-19.103-42.667-42.667v0c0-23.564 19.103-42.667 42.667-42.667v0h0.417c23.564 0 42.667 19.103 42.667 42.667v0c0 23.564-19.103 42.667-42.667 42.667v0h-0.417zM682.667 149.333c-23.564 0-42.667-19.103-42.667-42.667v0c0-23.564 19.103-42.667 42.667-42.667v0h0.417c23.564 0 42.667 19.103 42.667 42.667v0c0 23.564-19.103 42.667-42.667 42.667v0h-0.417z" />
<glyph unicode="&#xe945;" glyph-name="code" d="M683.917 746.667c-0.365 0.011-0.795 0.018-1.226 0.018-11.792 0-22.468-4.784-30.19-12.517v0c-7.719-7.721-12.494-18.386-12.494-30.167s4.774-22.446 12.494-30.167l225.833-225.833-225.833-225.833c-7.719-7.721-12.494-18.386-12.494-30.167s4.774-22.446 12.494-30.167v0c7.721-7.719 18.386-12.494 30.167-12.494s22.446 4.774 30.167 12.494l256 256c7.718 7.721 12.492 18.387 12.492 30.167s-4.774 22.445-12.492 30.167l-256 256c-7.43 7.44-17.591 12.151-28.852 12.498l-0.065 0.002zM342.583 746.667c-0.365 0.011-0.795 0.018-1.226 0.018-11.792 0-22.468-4.784-30.19-12.517v0l-256-256c-7.718-7.721-12.492-18.387-12.492-30.167s4.774-22.445 12.492-30.167l256-256c7.721-7.719 18.386-12.494 30.167-12.494s22.446 4.774 30.167 12.494v0c7.719 7.721 12.494 18.386 12.494 30.167s-4.774 22.446-12.494 30.167l-225.833 225.833 225.833 225.833c7.719 7.721 12.494 18.386 12.494 30.167s-4.774 22.446-12.494 30.167v0c-7.43 7.44-17.591 12.151-28.852 12.498l-0.065 0.002z" />
<glyph unicode="&#xe946;" glyph-name="codepen" d="M511.5 917.333c-8.475-0.112-16.329-2.677-22.91-7.016l0.16 0.099-426.667-277.333c-11.752-7.722-19.407-20.841-19.417-35.748v-298.669c0.010-14.909 7.665-28.028 19.256-35.651l0.161-0.099 426.667-277.333c6.56-4.319 14.605-6.89 23.25-6.89s16.69 2.571 23.411 6.99l-0.161-0.099 426.667 277.333c11.752 7.722 19.407 20.841 19.417 35.748v298.669c-0.010 14.909-7.665 28.028-19.256 35.651l-0.161 0.099-426.667 277.333c-6.57 4.337-14.63 6.919-23.294 6.919-0.16 0-0.32-0.001-0.48-0.003h0.024zM512 823.833l384-249.667v-252.333l-384-249.583-384 249.583v252.333l384 249.667zM512 341.333c-23.564 0-42.667-19.103-42.667-42.667v0-277.333c0-23.564 19.103-42.667 42.667-42.667v0c23.564 0 42.667 19.103 42.667 42.667v0 277.333c0 23.564-19.103 42.667-42.667 42.667v0zM86.25 640c-0.267 0.006-0.581 0.009-0.895 0.009-14.393 0-27.121-7.126-34.848-18.043l-0.089-0.133c-4.838-6.825-7.733-15.323-7.733-24.497 0-14.381 7.115-27.101 18.017-34.83l0.133-0.089 426.667-298.667c6.825-4.838 15.325-7.734 24.5-7.734s17.675 2.896 24.633 7.824l-0.133-0.089 426.667 298.667c11.035 7.819 18.15 20.538 18.15 34.92 0 9.174-2.896 17.672-7.823 24.63l0.089-0.133c-7.819 11.035-20.538 18.15-34.92 18.15-9.174 0-17.672-2.896-24.63-7.823l0.133 0.089-402.167-281.5-402.167 281.5c-6.579 4.674-14.727 7.546-23.534 7.749l-0.049 0.001zM512.917 640c-0.262 0.006-0.572 0.009-0.882 0.009-9.191 0-17.703-2.906-24.667-7.848l0.132 0.089-426.667-298.667c-11.035-7.819-18.15-20.538-18.15-34.92 0-9.174 2.896-17.672 7.823-24.63l-0.089 0.133c7.819-11.035 20.538-18.15 34.92-18.15 9.174 0 17.672 2.896 24.63 7.823l-0.133-0.089 402.167 281.5 402.167-281.5c6.825-4.838 15.323-7.733 24.497-7.733 14.381 0 27.101 7.115 34.83 18.017l0.089 0.133c4.838 6.825 7.733 15.323 7.733 24.497 0 14.381-7.115 27.101-18.017 34.83l-0.133 0.089-426.667 298.667c-6.579 4.674-14.727 7.546-23.534 7.749l-0.050 0.001zM512 917.333c-23.564 0-42.667-19.103-42.667-42.667v0-277.333c0-23.564 19.103-42.667 42.667-42.667v0c23.564 0 42.667 19.103 42.667 42.667v0 277.333c0 23.564-19.103 42.667-42.667 42.667v0z" />
<glyph unicode="&#xe947;" glyph-name="codesandbox" d="M512 917.25c-22.053 0-44.103-5.731-63.833-17.083l-298.667-170.667c-0.298-0.14-0.353-0.167-0.408-0.195l0.241 0.112c-39.504-22.808-63.953-65.052-64-110.667 0-0.012 0-0.027 0-0.042s0-0.029 0-0.044v0.002-341.333c0-0.012 0-0.027 0-0.042s0-0.029 0-0.044v0.002c0.047-45.615 24.496-87.859 64-110.667-0.186 0.084-0.132 0.056-0.077 0.029l0.244-0.112 298.667-170.667c39.515-22.737 88.344-22.716 127.833 0.083l298.5 170.583c0.298 0.14 0.353 0.167 0.408 0.195l-0.241-0.112c39.504 22.808 63.953 65.052 64 110.667 0 0.012 0 0.027 0 0.042s0 0.029 0 0.044v-0.002 341.333c0 0.012 0 0.027 0 0.042s0 0.029 0 0.044v-0.002c-0.047 45.615-24.496 87.859-64 110.667 0.186-0.084 0.132-0.056 0.077-0.029l-0.244 0.112-298.5 170.583c-19.772 11.415-41.886 17.167-64 17.167zM490.667 826.167c13.26 7.656 29.406 7.656 42.667 0-0.186 0.084-0.132 0.056-0.077 0.029l0.244-0.112 298.5-170.583c13.224-7.635 21.29-21.568 21.333-36.833v-341.25c-0.016-15.296-8.087-29.269-21.333-36.917l-298.5-170.583c-0.298-0.14-0.353-0.167-0.408-0.195l0.241 0.112c-13.26-7.656-29.406-7.656-42.667 0 0.186-0.084 0.132-0.056 0.077-0.029l-0.244 0.112-298.5 170.583c-13.224 7.635-21.29 21.568-21.333 36.833v341.333c0.043 15.265 8.109 29.198 21.333 36.833l298.5 170.583c0.298 0.14 0.353 0.167 0.408 0.195l-0.241-0.112zM320.833 823c-0.251 0.005-0.547 0.008-0.843 0.008-15.679 0-29.383-8.457-36.798-21.058l-0.109-0.2c-3.612-6.132-5.746-13.509-5.746-21.385 0-15.708 8.488-29.433 21.128-36.839l0.201-0.109 192-110.917c6.12-3.593 13.479-5.716 21.333-5.716s15.214 2.122 21.535 5.825l-0.201-0.109 192 110.917c12.841 7.515 21.33 21.24 21.33 36.948 0 7.876-2.134 15.253-5.855 21.585l0.109-0.2c-7.52 12.821-21.234 21.293-36.927 21.293-7.85 0-15.206-2.12-21.524-5.819l0.202 0.109-170.667-98.583-170.667 98.583c-5.887 3.442-12.935 5.528-20.46 5.666l-0.040 0.001zM128.833 490.667c-0.237 0.005-0.516 0.007-0.795 0.007-15.712 0-29.441-8.493-36.846-21.139l-0.109-0.202c-3.59-6.117-5.71-13.472-5.71-21.323 0-15.693 8.472-29.408 21.093-36.818l0.201-0.109 170.667-98.667v-196.75c0-23.564 19.103-42.667 42.667-42.667v0c23.564 0 42.667 19.103 42.667 42.667v0 221.417c-0.014 15.696-8.5 29.407-21.132 36.808l-0.201 0.109-192 110.917c-5.881 3.47-12.927 5.584-20.453 5.749l-0.047 0.001zM897.583 490.667c-0.441 0.016-0.96 0.026-1.481 0.026-7.896 0-15.292-2.145-21.635-5.884l0.199 0.109-192-110.917c-12.833-7.51-21.32-21.221-21.333-36.915v-221.419c0-23.564 19.103-42.667 42.667-42.667v0c23.564 0 42.667 19.103 42.667 42.667v0 196.75l170.667 98.667c12.821 7.52 21.293 21.234 21.293 36.927 0 7.85-2.12 15.206-5.819 21.524l0.109-0.202c-7.24 12.398-20.25 20.737-35.251 21.331l-0.082 0.003zM140.333 705.667c-0.251 0.005-0.547 0.008-0.843 0.008-15.679 0-29.383-8.457-36.798-21.058l-0.109-0.2c-3.612-6.132-5.746-13.509-5.746-21.385 0-15.708 8.488-29.433 21.128-36.839l0.201-0.109 372.5-215.417c6.12-3.593 13.479-5.716 21.333-5.716s15.214 2.122 21.535 5.825l-0.201-0.109 372.5 215.417c12.841 7.515 21.33 21.24 21.33 36.948 0 7.876-2.134 15.253-5.855 21.585l0.109-0.2c-7.515 12.841-21.24 21.33-36.948 21.33-7.876 0-15.253-2.134-21.585-5.855l0.2 0.109-351.083-203.167-351.083 203.167c-5.91 3.455-12.99 5.543-20.548 5.666h-0.036zM512 490.667c-23.564 0-42.667-19.103-42.667-42.667v0-430.083c0-23.564 19.103-42.667 42.667-42.667v0c23.564 0 42.667 19.103 42.667 42.667v0 430.083c0 23.564-19.103 42.667-42.667 42.667v0z" />
<glyph unicode="&#xe948;" glyph-name="coffee" d="M768 661.333c-23.564 0-42.667-19.103-42.667-42.667v0c0-23.564 19.103-42.667 42.667-42.667v0h42.667c46.222 0 75.459-15.797 96.083-39s31.917-55.815 31.917-89c0-33.185-11.292-65.797-31.917-89s-49.861-39-96.083-39h-42.667c-23.564 0-42.667-19.103-42.667-42.667v0c0-23.564 19.103-42.667 42.667-42.667v0h42.667c67.556 0 123.653 26.87 159.917 67.667s53.417 93.519 53.417 145.667c0 52.148-17.153 104.87-53.417 145.667s-92.361 67.667-159.917 67.667h-42.667zM85.333 661.333c-23.563-0.002-42.664-19.103-42.667-42.666v0-384c0-117.315 96.018-213.333 213.333-213.333h341.333c117.315 0 213.333 96.018 213.333 213.333v384c-0.002 23.563-19.103 42.664-42.666 42.667h-682.667zM128 576h597.333v-341.333c0-71.198-56.802-128-128-128h-341.333c-71.198 0-128 56.802-128 128v341.333zM256 960c-23.564 0-42.667-19.103-42.667-42.667v0-128c0-23.564 19.103-42.667 42.667-42.667v0c23.564 0 42.667 19.103 42.667 42.667v0 128c0 23.564-19.103 42.667-42.667 42.667v0zM426.667 960c-23.564 0-42.667-19.103-42.667-42.667v0-128c0-23.564 19.103-42.667 42.667-42.667v0c23.564 0 42.667 19.103 42.667 42.667v0 128c0 23.564-19.103 42.667-42.667 42.667v0zM597.333 960c-23.564 0-42.667-19.103-42.667-42.667v0-128c0-23.564 19.103-42.667 42.667-42.667v0c23.564 0 42.667 19.103 42.667 42.667v0 128c0 23.564-19.103 42.667-42.667 42.667v0z" />
<glyph unicode="&#xe949;" glyph-name="columns" d="M213.333 874.667c-70.187 0-128-57.813-128-128v-597.333c0-70.187 57.813-128 128-128h597.333c70.187 0 128 57.813 128 128v597.333c0 70.187-57.813 128-128 128h-597.333zM213.333 789.333h256v-682.667h-256c-24.070 0-42.667 18.597-42.667 42.667v597.333c0 24.070 18.597 42.667 42.667 42.667zM554.667 789.333h256c24.070 0 42.667-18.597 42.667-42.667v-597.333c0-24.070-18.597-42.667-42.667-42.667h-256v682.667z" />
<glyph unicode="&#xe94a;" glyph-name="command" d="M256 874.667c-93.751 0-170.667-76.915-170.667-170.667s76.915-170.667 170.667-170.667h85.333v-170.667h-85.333c-93.751 0-170.667-76.915-170.667-170.667s76.915-170.667 170.667-170.667c93.751 0 170.667 76.915 170.667 170.667v85.333h170.667v-85.333c0-93.751 76.915-170.667 170.667-170.667s170.667 76.915 170.667 170.667c0 93.751-76.915 170.667-170.667 170.667h-85.333v170.667h85.333c93.751 0 170.667 76.915 170.667 170.667s-76.915 170.667-170.667 170.667c-93.751 0-170.667-76.915-170.667-170.667v-85.333h-170.667v85.333c0 93.751-76.915 170.667-170.667 170.667zM256 789.333c47.634 0 85.333-37.7 85.333-85.333v-85.333h-85.333c-47.634 0-85.333 37.7-85.333 85.333s37.7 85.333 85.333 85.333zM768 789.333c47.634 0 85.333-37.7 85.333-85.333s-37.7-85.333-85.333-85.333h-85.333v85.333c0 47.634 37.7 85.333 85.333 85.333zM426.667 533.333h170.667v-170.667h-170.667v170.667zM256 277.333h85.333v-85.333c0-47.634-37.7-85.333-85.333-85.333s-85.333 37.7-85.333 85.333c0 47.634 37.7 85.333 85.333 85.333zM682.667 277.333h85.333c47.634 0 85.333-37.7 85.333-85.333s-37.7-85.333-85.333-85.333c-47.634 0-85.333 37.7-85.333 85.333v85.333z" />
<glyph unicode="&#xe94b;" glyph-name="compass" d="M512 917.333c-258.7 0-469.333-210.633-469.333-469.333s210.633-469.333 469.333-469.333c252.853 0 456.775 202.185 466 452.833 2.103 4.871 3.329 10.542 3.333 16.498v0.002c-0.012 5.866-1.205 11.449-3.355 16.53l0.105-0.28c-9.086 250.774-213.139 453.083-466.083 453.083zM512 832c212.583 0 384-171.417 384-384s-171.417-384-384-384c-212.583 0-384 171.417-384 384s171.417 384 384 384zM691.083 671.5c-4.221-0.162-8.211-0.912-11.968-2.171l0.301 0.087-271.333-90.5c-12.778-4.346-22.654-14.222-26.911-26.7l-0.089-0.3-90.5-271.333c-1.396-4.037-2.202-8.69-2.202-13.531 0-23.567 19.104-42.671 42.671-42.671 4.841 0 9.494 0.806 13.832 2.292l-0.3-0.089 271.333 90.5c12.778 4.346 22.654 14.222 26.911 26.7l0.089 0.3 90.5 271.333c1.379 4.015 2.176 8.64 2.176 13.452 0 23.567-19.104 42.671-42.671 42.671-0.647 0-1.29-0.014-1.929-0.043l0.091 0.003zM625.417 561.417l-56.667-170.167-170.167-56.667 56.667 170.167 170.167 56.667z" />
<glyph unicode="&#xe94c;" glyph-name="copy" d="M469.333 618.667c-70.174 0-128-57.826-128-128v-384c0-70.174 57.826-128 128-128h384c70.174 0 128 57.826 128 128v384c0 70.174-57.826 128-128 128h-384zM469.333 533.333h384c24.375 0 42.667-18.291 42.667-42.667v-384c0-24.375-18.291-42.667-42.667-42.667h-384c-24.375 0-42.667 18.291-42.667 42.667v384c0 24.375 18.291 42.667 42.667 42.667zM170.667 917.333c-70.187 0-128-57.813-128-128v-384c0-70.187 57.813-128 128-128h42.667c23.564 0 42.667 19.103 42.667 42.667v0c0 23.564-19.103 42.667-42.667 42.667v0h-42.667c-24.070 0-42.667 18.597-42.667 42.667v384c0 24.070 18.597 42.667 42.667 42.667h384c24.070 0 42.667-18.597 42.667-42.667v-42.667c0-23.564 19.103-42.667 42.667-42.667v0c23.564 0 42.667 19.103 42.667 42.667v0 42.667c0 70.187-57.813 128-128 128h-384z" />
<glyph unicode="&#xe94d;" glyph-name="corner-down-left" d="M385.25 576c-0.365 0.011-0.795 0.018-1.226 0.018-11.792 0-22.468-4.784-30.19-12.517v0l-213.333-213.333c-7.718-7.721-12.492-18.387-12.492-30.167s4.774-22.445 12.492-30.167l213.333-213.333c7.721-7.719 18.386-12.494 30.167-12.494s22.446 4.774 30.167 12.494v0c7.719 7.721 12.494 18.386 12.494 30.167s-4.774 22.446-12.494 30.167l-183.167 183.167 183.167 183.167c7.719 7.721 12.494 18.386 12.494 30.167s-4.774 22.446-12.494 30.167v0c-7.43 7.44-17.591 12.151-28.852 12.498l-0.065 0.002zM853.333 832c-23.564 0-42.667-19.103-42.667-42.667v0-298.667c0-71.198-56.802-128-128-128h-512c-23.564 0-42.667-19.103-42.667-42.667v0c0-23.564 19.103-42.667 42.667-42.667v0h512c117.315 0 213.333 96.018 213.333 213.333v298.667c0 23.564-19.103 42.667-42.667 42.667v0z" />
<glyph unicode="&#xe94e;" glyph-name="corner-down-right" d="M641.25 576c-0.365 0.011-0.795 0.018-1.226 0.018-11.792 0-22.468-4.784-30.19-12.517v0c-7.719-7.721-12.494-18.386-12.494-30.167s4.774-22.446 12.494-30.167l183.167-183.167-183.167-183.167c-7.719-7.721-12.494-18.386-12.494-30.167s4.774-22.446 12.494-30.167v0c7.721-7.719 18.386-12.494 30.167-12.494s22.446 4.774 30.167 12.494l213.333 213.333c7.718 7.721 12.492 18.387 12.492 30.167s-4.774 22.445-12.492 30.167l-213.333 213.333c-7.43 7.44-17.591 12.151-28.852 12.498l-0.065 0.002zM170.667 832c-23.564 0-42.667-19.103-42.667-42.667v0-298.667c0-117.315 96.018-213.333 213.333-213.333h512c23.564 0 42.667 19.103 42.667 42.667v0c0 23.564-19.103 42.667-42.667 42.667v0h-512c-71.198 0-128 56.802-128 128v298.667c0 23.564-19.103 42.667-42.667 42.667v0z" />
<glyph unicode="&#xe94f;" glyph-name="corner-left-down" d="M171.917 362.667c-0.365 0.011-0.795 0.018-1.226 0.018-11.792 0-22.468-4.784-30.19-12.517v0c-7.719-7.721-12.494-18.386-12.494-30.167s4.774-22.446 12.494-30.167l213.333-213.333c7.721-7.718 18.387-12.492 30.167-12.492s22.445 4.774 30.167 12.492l213.333 213.333c7.719 7.721 12.494 18.386 12.494 30.167s-4.774 22.446-12.494 30.167v0c-7.721 7.719-18.386 12.494-30.167 12.494s-22.446-4.774-30.167-12.494l-183.167-183.167-183.167 183.167c-7.43 7.44-17.591 12.151-28.852 12.498l-0.065 0.002zM554.667 832c-117.315 0-213.333-96.018-213.333-213.333v-512c0-23.564 19.103-42.667 42.667-42.667v0c23.564 0 42.667 19.103 42.667 42.667v0 512c0 71.198 56.802 128 128 128h298.667c23.564 0 42.667 19.103 42.667 42.667v0c0 23.564-19.103 42.667-42.667 42.667v0h-298.667z" />
<glyph unicode="&#xe950;" glyph-name="corner-left-up" d="M385.25 832c-0.365 0.011-0.794 0.018-1.224 0.018-11.793 0-22.469-4.784-30.192-12.517v0l-213.333-213.333c-7.719-7.721-12.494-18.386-12.494-30.167s4.774-22.446 12.494-30.167v0c7.721-7.719 18.386-12.494 30.167-12.494s22.446 4.774 30.167 12.494l183.167 183.167 183.167-183.167c7.721-7.719 18.386-12.494 30.167-12.494s22.446 4.774 30.167 12.494v0c7.719 7.721 12.494 18.386 12.494 30.167s-4.774 22.446-12.494 30.167l-213.333 213.333c-7.43 7.44-17.591 12.15-28.851 12.498l-0.065 0.002zM384 832c-23.564 0-42.667-19.103-42.667-42.667v0-512c0-117.315 96.018-213.333 213.333-213.333h298.667c23.564 0 42.667 19.103 42.667 42.667v0c0 23.564-19.103 42.667-42.667 42.667v0h-298.667c-71.198 0-128 56.802-128 128v512c0 23.564-19.103 42.667-42.667 42.667v0z" />
<glyph unicode="&#xe951;" glyph-name="corner-right-down" d="M427.917 362.667c-0.365 0.011-0.795 0.018-1.226 0.018-11.792 0-22.468-4.784-30.19-12.517v0c-7.719-7.721-12.494-18.386-12.494-30.167s4.774-22.446 12.494-30.167l213.333-213.333c7.721-7.718 18.387-12.492 30.167-12.492s22.445 4.774 30.167 12.492l213.333 213.333c7.719 7.721 12.494 18.386 12.494 30.167s-4.774 22.446-12.494 30.167v0c-7.721 7.719-18.386 12.494-30.167 12.494s-22.446-4.774-30.167-12.494l-183.167-183.167-183.167 183.167c-7.43 7.44-17.591 12.151-28.852 12.498l-0.065 0.002zM170.667 832c-23.564 0-42.667-19.103-42.667-42.667v0c0-23.564 19.103-42.667 42.667-42.667v0h298.667c71.198 0 128-56.802 128-128v-512c0-23.564 19.103-42.667 42.667-42.667v0c23.564 0 42.667 19.103 42.667 42.667v0 512c0 117.315-96.018 213.333-213.333 213.333h-298.667z" />
<glyph unicode="&#xe952;" glyph-name="corner-right-up" d="M641.25 832c-0.365 0.011-0.794 0.018-1.224 0.018-11.793 0-22.469-4.784-30.192-12.517v0l-213.333-213.333c-7.719-7.721-12.494-18.386-12.494-30.167s4.774-22.446 12.494-30.167v0c7.721-7.719 18.386-12.494 30.167-12.494s22.446 4.774 30.167 12.494l183.167 183.167 183.167-183.167c7.721-7.719 18.386-12.494 30.167-12.494s22.446 4.774 30.167 12.494v0c7.719 7.721 12.494 18.386 12.494 30.167s-4.774 22.446-12.494 30.167l-213.333 213.333c-7.43 7.44-17.591 12.15-28.851 12.498l-0.065 0.002zM640 832c-23.564 0-42.667-19.103-42.667-42.667v0-512c0-71.198-56.802-128-128-128h-298.667c-23.564 0-42.667-19.103-42.667-42.667v0c0-23.564 19.103-42.667 42.667-42.667v0h298.667c117.315 0 213.333 96.018 213.333 213.333v512c0 23.564-19.103 42.667-42.667 42.667v0z" />
<glyph unicode="&#xe953;" glyph-name="corner-up-left" d="M385.25 832c-0.365 0.011-0.795 0.018-1.226 0.018-11.792 0-22.468-4.784-30.19-12.517v0l-213.333-213.333c-7.718-7.721-12.492-18.387-12.492-30.167s4.774-22.445 12.492-30.167l213.333-213.333c7.721-7.719 18.386-12.494 30.167-12.494s22.446 4.774 30.167 12.494v0c7.719 7.721 12.494 18.386 12.494 30.167s-4.774 22.446-12.494 30.167l-183.167 183.167 183.167 183.167c7.719 7.721 12.494 18.386 12.494 30.167s-4.774 22.446-12.494 30.167v0c-7.43 7.44-17.591 12.151-28.852 12.498l-0.065 0.002zM170.667 618.667c-23.564 0-42.667-19.103-42.667-42.667v0c0-23.564 19.103-42.667 42.667-42.667v0h512c71.198 0 128-56.802 128-128v-298.667c0-23.564 19.103-42.667 42.667-42.667v0c23.564 0 42.667 19.103 42.667 42.667v0 298.667c0 117.315-96.018 213.333-213.333 213.333h-512z" />
<glyph unicode="&#xe954;" glyph-name="corner-up-right" d="M641.25 832c-0.365 0.011-0.795 0.018-1.226 0.018-11.792 0-22.468-4.784-30.19-12.517v0c-7.719-7.721-12.494-18.386-12.494-30.167s4.774-22.446 12.494-30.167l183.167-183.167-183.167-183.167c-7.719-7.721-12.494-18.386-12.494-30.167s4.774-22.446 12.494-30.167v0c7.721-7.719 18.386-12.494 30.167-12.494s22.446 4.774 30.167 12.494l213.333 213.333c7.718 7.721 12.492 18.387 12.492 30.167s-4.774 22.445-12.492 30.167l-213.333 213.333c-7.43 7.44-17.591 12.151-28.852 12.498l-0.065 0.002zM341.333 618.667c-117.315 0-213.333-96.018-213.333-213.333v-298.667c0-23.564 19.103-42.667 42.667-42.667v0c23.564 0 42.667 19.103 42.667 42.667v0 298.667c0 71.198 56.802 128 128 128h512c23.564 0 42.667 19.103 42.667 42.667v0c0 23.564-19.103 42.667-42.667 42.667v0h-512z" />
<glyph unicode="&#xe955;" glyph-name="cpu" d="M256 832c-70.174 0-128-57.826-128-128v-512c0-70.174 57.826-128 128-128h512c70.174 0 128 57.826 128 128v512c0 70.174-57.826 128-128 128h-512zM256 746.667h512c24.375 0 42.667-18.291 42.667-42.667v-512c0-24.375-18.291-42.667-42.667-42.667h-512c-24.375 0-42.667 18.291-42.667 42.667v512c0 24.375 18.291 42.667 42.667 42.667zM384 618.667c-23.563-0.002-42.664-19.103-42.667-42.666v0-256c0.002-23.563 19.103-42.664 42.666-42.667h256c23.563 0.002 42.664 19.103 42.667 42.666v0 256c-0.002 23.563-19.103 42.664-42.666 42.667h-256zM426.667 533.333h170.667v-170.667h-170.667v170.667zM384 960c-23.564 0-42.667-19.103-42.667-42.667v0-128c0-23.564 19.103-42.667 42.667-42.667v0c23.564 0 42.667 19.103 42.667 42.667v0 128c0 23.564-19.103 42.667-42.667 42.667v0zM640 960c-23.564 0-42.667-19.103-42.667-42.667v0-128c0-23.564 19.103-42.667 42.667-42.667v0c23.564 0 42.667 19.103 42.667 42.667v0 128c0 23.564-19.103 42.667-42.667 42.667v0zM384 149.333c-23.564 0-42.667-19.103-42.667-42.667v0-128c0-23.564 19.103-42.667 42.667-42.667v0c23.564 0 42.667 19.103 42.667 42.667v0 128c0 23.564-19.103 42.667-42.667 42.667v0zM640 149.333c-23.564 0-42.667-19.103-42.667-42.667v0-128c0-23.564 19.103-42.667 42.667-42.667v0c23.564 0 42.667 19.103 42.667 42.667v0 128c0 23.564-19.103 42.667-42.667 42.667v0zM853.333 618.667c-23.564 0-42.667-19.103-42.667-42.667v0c0-23.564 19.103-42.667 42.667-42.667v0h128c23.564 0 42.667 19.103 42.667 42.667v0c0 23.564-19.103 42.667-42.667 42.667v0h-128zM853.333 405.333c-23.564 0-42.667-19.103-42.667-42.667v0c0-23.564 19.103-42.667 42.667-42.667v0h128c23.564 0 42.667 19.103 42.667 42.667v0c0 23.564-19.103 42.667-42.667 42.667v0h-128zM42.667 618.667c-23.564 0-42.667-19.103-42.667-42.667v0c0-23.564 19.103-42.667 42.667-42.667v0h128c23.564 0 42.667 19.103 42.667 42.667v0c0 23.564-19.103 42.667-42.667 42.667v0h-128zM42.667 405.333c-23.564 0-42.667-19.103-42.667-42.667v0c0-23.564 19.103-42.667 42.667-42.667v0h128c23.564 0 42.667 19.103 42.667 42.667v0c0 23.564-19.103 42.667-42.667 42.667v0h-128z" />
<glyph unicode="&#xe956;" glyph-name="credit-card" d="M128 832c-70.174 0-128-57.826-128-128v-512c0-70.174 57.826-128 128-128h768c70.174 0 128 57.826 128 128v512c0 70.174-57.826 128-128 128h-768zM128 746.667h768c24.375 0 42.667-18.291 42.667-42.667v-512c0-24.375-18.291-42.667-42.667-42.667h-768c-24.375 0-42.667 18.291-42.667 42.667v512c0 24.375 18.291 42.667 42.667 42.667zM42.667 576c-23.564 0-42.667-19.103-42.667-42.667v0c0-23.564 19.103-42.667 42.667-42.667v0h938.667c23.564 0 42.667 19.103 42.667 42.667v0c0 23.564-19.103 42.667-42.667 42.667v0h-938.667z" />
<glyph unicode="&#xe957;" glyph-name="crop" d="M261.917 960c-0.099 0.001-0.217 0.001-0.335 0.001-23.447 0-42.477-18.914-42.665-42.317v-0.018l-5.583-640c0-0.049 0-0.108 0-0.167s0-0.117 0-0.176v0.009c0-70.187 57.813-128 128-128h640c23.564 0 42.667 19.103 42.667 42.667v0c0 23.564-19.103 42.667-42.667 42.667v0h-640c-24.070 0-42.667 18.597-42.667 42.667l5.583 639.667c0.001 0.099 0.001 0.217 0.001 0.335 0 23.447-18.914 42.477-42.317 42.665h-0.018zM682.333 746.667l-640-5.583c-23.421-0.188-42.335-19.218-42.335-42.665 0-0.118 0-0.235 0.001-0.353v0.018c0.188-23.421 19.218-42.335 42.665-42.335 0.118 0 0.235 0 0.353 0.001h-0.018l639.667 5.583c24.070 0 42.667-18.597 42.667-42.667v-640c0-23.564 19.103-42.667 42.667-42.667v0c23.564 0 42.667 19.103 42.667 42.667v0 640c0 70.187-57.813 128-128 128-0.049 0-0.108 0-0.167 0s-0.117 0-0.176 0h0.009z" />
<glyph unicode="&#xe958;" glyph-name="crosshair" d="M512 917.333c-258.7 0-469.333-210.633-469.333-469.333s210.633-469.333 469.333-469.333c252.853 0 456.775 202.185 466 452.833 2.103 4.871 3.329 10.542 3.333 16.498v0.002c-0.012 5.866-1.205 11.449-3.355 16.53l0.105-0.28c-9.086 250.774-213.139 453.083-466.083 453.083zM512 832c212.583 0 384-171.417 384-384s-171.417-384-384-384c-212.583 0-384 171.417-384 384s171.417 384 384 384zM768 490.667c-23.564 0-42.667-19.103-42.667-42.667v0c0-23.564 19.103-42.667 42.667-42.667v0h170.667c23.564 0 42.667 19.103 42.667 42.667v0c0 23.564-19.103 42.667-42.667 42.667v0h-170.667zM85.333 490.667c-23.564 0-42.667-19.103-42.667-42.667v0c0-23.564 19.103-42.667 42.667-42.667v0h170.667c23.564 0 42.667 19.103 42.667 42.667v0c0 23.564-19.103 42.667-42.667 42.667v0h-170.667zM512 917.333c-23.564 0-42.667-19.103-42.667-42.667v0-170.667c0-23.564 19.103-42.667 42.667-42.667v0c23.564 0 42.667 19.103 42.667 42.667v0 170.667c0 23.564-19.103 42.667-42.667 42.667v0zM512 234.667c-23.564 0-42.667-19.103-42.667-42.667v0-170.667c0-23.564 19.103-42.667 42.667-42.667v0c23.564 0 42.667 19.103 42.667 42.667v0 170.667c0 23.564-19.103 42.667-42.667 42.667v0z" />
<glyph unicode="&#xe959;" glyph-name="database" d="M512 917.333c-109.882 0-209.333-14.444-285-39.667-37.833-12.611-69.883-27.676-95.25-47.667s-46.417-48.366-46.417-83.333c0-34.967 21.050-63.342 46.417-83.333s57.417-35.056 95.25-47.667c75.667-25.222 175.118-39.667 285-39.667s209.333 14.444 285 39.667c37.833 12.611 69.883 27.676 95.25 47.667 19.26 15.178 32.87 36.523 39.833 60.583 4.127 6.448 6.579 14.312 6.583 22.749v0.001c-0.021 8.409-2.471 16.242-6.686 22.838l0.103-0.172c-6.95 24.095-20.553 45.472-39.833 60.667-25.367 19.991-57.417 35.056-95.25 47.667-75.667 25.222-175.118 39.667-285 39.667zM512 832c102.196 0 194.686-14.229 258-35.333 31.657-10.552 55.92-23.030 69.417-33.667s13.917-15.954 13.917-16.333c0-0.379-0.42-5.697-13.917-16.333s-37.76-23.114-69.417-33.667c-63.314-21.105-155.804-35.333-258-35.333s-194.686 14.229-258 35.333c-31.657 10.552-55.92 23.030-69.417 33.667s-13.917 15.954-13.917 16.333c0 0.379 0.42 5.697 13.917 16.333s37.76 23.114 69.417 33.667c63.314 21.105 155.804 35.333 258 35.333zM128 490.667c-23.564 0-42.667-19.103-42.667-42.667v0c0-34.842 20.883-63.298 46.167-83.333s57.225-35.056 95-47.667c75.55-25.222 175.022-39.667 285.5-39.667s209.95 14.445 285.5 39.667c37.775 12.611 69.716 27.631 95 47.667s46.167 48.491 46.167 83.333c0 23.564-19.103 42.667-42.667 42.667v0c-23.564 0-42.667-19.103-42.667-42.667v0c0-0.571-0.451-5.812-13.833-16.417s-37.442-23.131-69-33.667c-63.117-21.071-155.645-35.25-258.5-35.25s-195.383 14.179-258.5 35.25c-31.558 10.536-55.617 23.062-69 33.667s-13.833 15.845-13.833 16.417c0 23.564-19.103 42.667-42.667 42.667v0zM128 789.333c-23.564 0-42.667-19.103-42.667-42.667v0-597.333c0-34.842 20.883-63.298 46.167-83.333s57.225-35.056 95-47.667c75.55-25.222 175.022-39.667 285.5-39.667s209.95 14.445 285.5 39.667c37.775 12.611 69.716 27.631 95 47.667s46.167 48.491 46.167 83.333v597.333c0 23.564-19.103 42.667-42.667 42.667v0c-23.564 0-42.667-19.103-42.667-42.667v0-597.333c0-0.571-0.451-5.812-13.833-16.417s-37.442-23.131-69-33.667c-63.117-21.071-155.645-35.25-258.5-35.25s-195.383 14.179-258.5 35.25c-31.558 10.536-55.617 23.062-69 33.667s-13.833 15.845-13.833 16.417v597.333c0 23.564-19.103 42.667-42.667 42.667v0z" />
<glyph unicode="&#xe95a;" glyph-name="delete" d="M341.333 832c-12.773-0.012-24.23-5.634-32.042-14.535l-298.709-341.381c-6.549-7.462-10.544-17.306-10.544-28.083s3.995-20.621 10.586-28.132l298.625-341.285c7.854-8.949 19.311-14.571 32.081-14.583h554.669c70.187 0 128 57.813 128 128v512c0 70.187-57.813 128-128 128h-554.667zM360.667 746.667h535.333c24.070 0 42.667-18.597 42.667-42.667v-512c0-24.070-18.597-42.667-42.667-42.667h-535.333l-261.333 298.667 261.333 298.667zM769.25 618.667c-0.365 0.011-0.795 0.018-1.226 0.018-11.792 0-22.468-4.784-30.19-12.517v0l-256-256c-7.719-7.721-12.494-18.386-12.494-30.167s4.774-22.446 12.494-30.167v0c7.721-7.719 18.386-12.494 30.167-12.494s22.446 4.774 30.167 12.494l256 256c7.719 7.721 12.494 18.386 12.494 30.167s-4.774 22.446-12.494 30.167v0c-7.43 7.44-17.591 12.151-28.852 12.498l-0.065 0.002zM513.25 618.667c-0.365 0.011-0.795 0.018-1.226 0.018-11.792 0-22.468-4.784-30.19-12.517v0c-7.719-7.721-12.494-18.386-12.494-30.167s4.774-22.446 12.494-30.167l256-256c7.721-7.719 18.386-12.494 30.167-12.494s22.446 4.774 30.167 12.494v0c7.719 7.721 12.494 18.386 12.494 30.167s-4.774 22.446-12.494 30.167l-256 256c-7.43 7.44-17.591 12.151-28.852 12.498l-0.065 0.002z" />
<glyph unicode="&#xe95b;" glyph-name="disc" d="M512 917.333c-258.7 0-469.333-210.633-469.333-469.333s210.633-469.333 469.333-469.333c252.853 0 456.775 202.185 466 452.833 2.103 4.871 3.329 10.542 3.333 16.498v0.002c-0.012 5.866-1.205 11.449-3.355 16.53l0.105-0.28c-9.086 250.774-213.139 453.083-466.083 453.083zM512 832c212.583 0 384-171.417 384-384s-171.417-384-384-384c-212.583 0-384 171.417-384 384s171.417 384 384 384zM512 618.667c-93.751 0-170.667-76.915-170.667-170.667s76.915-170.667 170.667-170.667c87.854 0 158.404 68.354 167.25 154 2.152 4.916 3.407 10.643 3.417 16.663v0.003c-0.017 5.931-1.241 11.571-3.439 16.694l0.106-0.278c-8.722 85.771-79.389 154.25-167.333 154.25zM512 533.333c47.634 0 85.333-37.7 85.333-85.333s-37.7-85.333-85.333-85.333c-47.634 0-85.333 37.7-85.333 85.333s37.7 85.333 85.333 85.333z" />
<glyph unicode="&#xe95c;" glyph-name="dollar-sign" d="M512 960c-23.564 0-42.667-19.103-42.667-42.667v0-938.667c0-23.564 19.103-42.667 42.667-42.667v0c23.564 0 42.667 19.103 42.667 42.667v0 938.667c0 23.564-19.103 42.667-42.667 42.667v0zM405.333 789.333c-60.444 0-111.208-24.203-143.917-61s-48.083-84.185-48.083-131c0-46.815 15.375-94.203 48.083-131s83.472-61 143.917-61h213.333c39.111 0 63.014-13.13 80.083-32.333s26.583-46.481 26.583-74.333c0-27.852-9.514-55.13-26.583-74.333s-40.972-32.333-80.083-32.333h-362.667c-23.564 0-42.667-19.103-42.667-42.667v0c0-23.564 19.103-42.667 42.667-42.667v0h362.667c60.444 0 111.208 24.203 143.917 61s48.083 84.185 48.083 131c0 46.815-15.375 94.203-48.083 131s-83.472 61-143.917 61h-213.333c-39.111 0-63.014 13.13-80.083 32.333s-26.583 46.481-26.583 74.333c0 27.852 9.514 55.13 26.583 74.333s40.972 32.333 80.083 32.333h320c23.564 0 42.667 19.103 42.667 42.667v0c0 23.564-19.103 42.667-42.667 42.667v0h-320z" />
<glyph unicode="&#xe95d;" glyph-name="download" d="M128 362.667c-23.564 0-42.667-19.103-42.667-42.667v0-170.667c0-70.187 57.813-128 128-128h597.333c70.187 0 128 57.813 128 128v170.667c0 23.564-19.103 42.667-42.667 42.667v0c-23.564 0-42.667-19.103-42.667-42.667v0-170.667c0-24.070-18.597-42.667-42.667-42.667h-597.333c-24.070 0-42.667 18.597-42.667 42.667v170.667c0 23.564-19.103 42.667-42.667 42.667v0zM299.917 576c-0.365 0.011-0.795 0.018-1.226 0.018-11.792 0-22.468-4.784-30.19-12.517v0c-7.719-7.721-12.494-18.386-12.494-30.167s4.774-22.446 12.494-30.167l213.333-213.333c7.721-7.718 18.387-12.492 30.167-12.492s22.445 4.774 30.167 12.492l213.333 213.333c7.719 7.721 12.494 18.386 12.494 30.167s-4.774 22.446-12.494 30.167v0c-7.721 7.719-18.386 12.494-30.167 12.494s-22.446-4.774-30.167-12.494l-183.167-183.167-183.167 183.167c-7.43 7.44-17.591 12.151-28.852 12.498l-0.065 0.002zM512 874.667c-23.564 0-42.667-19.103-42.667-42.667v0-512c0-23.564 19.103-42.667 42.667-42.667v0c23.564 0 42.667 19.103 42.667 42.667v0 512c0 23.564-19.103 42.667-42.667 42.667v0z" />
</font>
</defs>
</svg>
