<?xml version="1.0" encoding="UTF-8" standalone="no"?>
<svg
   xmlns:dc="http://purl.org/dc/elements/1.1/"
   xmlns:cc="http://creativecommons.org/ns#"
   xmlns:rdf="http://www.w3.org/1999/02/22-rdf-syntax-ns#"
   xmlns:svg="http://www.w3.org/2000/svg"
   xmlns="http://www.w3.org/2000/svg"
   xmlns:sodipodi="http://sodipodi.sourceforge.net/DTD/sodipodi-0.dtd"
   xmlns:inkscape="http://www.inkscape.org/namespaces/inkscape"
   version="1.1"
   id="svg2"
   xml:space="preserve"
   width="318.81665"
   height="334.19333"
   viewBox="0 0 318.81665 334.19333"
   sodipodi:docname="logo-black.svg"
   inkscape:version="1.0 (6e3e5246a0, 2020-05-07)"><metadata
     id="metadata8"><rdf:RDF><cc:Work
         rdf:about=""><dc:format>image/svg+xml</dc:format><dc:type
           rdf:resource="http://purl.org/dc/dcmitype/StillImage" /><dc:title /></cc:Work></rdf:RDF></metadata><defs
     id="defs6"><linearGradient
       x1="0"
       y1="0"
       x2="1"
       y2="0"
       gradientUnits="userSpaceOnUse"
       gradientTransform="matrix(-65.194946,-181.55008,-181.55008,65.194946,284.98926,394.20999)"
       spreadMethod="pad"
       id="linearGradient44"><stop
         style="stop-opacity:1;stop-color:#554a7a"
         offset="0"
         id="stop38" /><stop
         style="stop-opacity:1;stop-color:#241e36"
         offset="0.8053994"
         id="stop40" /><stop
         style="stop-opacity:1;stop-color:#241e36"
         offset="1"
         id="stop42" /></linearGradient><linearGradient
       x1="0"
       y1="0"
       x2="1"
       y2="0"
       gradientUnits="userSpaceOnUse"
       gradientTransform="matrix(95.718536,100.29822,100.29822,-95.718536,242.02095,252.18024)"
       spreadMethod="pad"
       id="linearGradient66"><stop
         style="stop-opacity:1;stop-color:#e337ff"
         offset="0"
         id="stop60" /><stop
         style="stop-opacity:1;stop-color:#00a7d9"
         offset="0.981199"
         id="stop62" /><stop
         style="stop-opacity:1;stop-color:#00a7d9"
         offset="1"
         id="stop64" /></linearGradient><linearGradient
       x1="0"
       y1="0"
       x2="1"
       y2="0"
       gradientUnits="userSpaceOnUse"
       gradientTransform="matrix(141.93367,148.72453,148.72453,-141.93367,168.07132,227.30186)"
       spreadMethod="pad"
       id="linearGradient88"><stop
         style="stop-opacity:1;stop-color:#e337ff"
         offset="0"
         id="stop82" /><stop
         style="stop-opacity:1;stop-color:#00a7d9"
         offset="0.981199"
         id="stop84" /><stop
         style="stop-opacity:1;stop-color:#00a7d9"
         offset="1"
         id="stop86" /></linearGradient><clipPath
       clipPathUnits="userSpaceOnUse"
       id="clipPath98"><path
         d="m 331.741,374.591 c 6.366,-7.738 5.323,-19.044 4.133,-25.096 v 0 C 331.67,328.1 315.13,314.438 287.733,291.802 v 0 c -5.016,-4.143 -10.204,-8.427 -15.829,-13.179 v 0 c -11.002,-9.295 -26.736,-28.139 -15.311,-53.809 v 0 c 7.468,10.279 21.153,21.976 40.171,38.227 v 0 c 4.75,4.059 9.845,8.413 15.275,13.111 v 0 c 30.474,26.374 39.527,40.715 40.365,63.94 v 0 c 0.635,17.594 -8.411,31.272 -23.904,37.582 v 0 c 1.196,-0.883 2.276,-1.911 3.241,-3.083"
         id="path96" /></clipPath><linearGradient
       x1="0"
       y1="0"
       x2="1"
       y2="0"
       gradientUnits="userSpaceOnUse"
       gradientTransform="matrix(79.259819,-31.703913,-31.703913,-79.259819,211.73245,333.56906)"
       spreadMethod="pad"
       id="linearGradient114"><stop
         style="stop-opacity:1;stop-color:#ffffff"
         offset="0"
         id="stop108" /><stop
         style="stop-opacity:0;stop-color:#ffffff"
         offset="0.91954023"
         id="stop110" /><stop
         style="stop-opacity:0;stop-color:#ffffff"
         offset="1"
         id="stop112" /></linearGradient><mask
       maskUnits="userSpaceOnUse"
       x="0"
       y="0"
       width="1"
       height="1"
       id="mask116"><g
         id="g126"><g
           id="g124"><g
             id="g122"><g
               id="g120"><path
                 d="M -32768,32767 H 32767 V -32768 H -32768 Z"
                 style="fill:url(#linearGradient114);stroke:none"
                 id="path118" /></g></g></g></g></mask><linearGradient
       x1="0"
       y1="0"
       x2="1"
       y2="0"
       gradientUnits="userSpaceOnUse"
       gradientTransform="matrix(79.259819,-31.703913,-31.703913,-79.259819,211.73245,333.56906)"
       spreadMethod="pad"
       id="linearGradient138"><stop
         style="stop-opacity:1;stop-color:#ffffff"
         offset="0"
         id="stop132" /><stop
         style="stop-opacity:1;stop-color:#ffffff"
         offset="0.91954023"
         id="stop134" /><stop
         style="stop-opacity:1;stop-color:#ffffff"
         offset="1"
         id="stop136" /></linearGradient><clipPath
       clipPathUnits="userSpaceOnUse"
       id="clipPath148"><path
         d="m 276.348,423.734 c 6.824,-0.106 12.556,-3.123 15.378,-8.11 v 0 c 9.285,-16.359 -5.617,-32.49 -32.67,-53.216 v 0 c -8.282,-6.345 -16.644,-12.475 -24.73,-18.404 v 0 c -41.662,-30.543 -77.642,-56.921 -82.289,-95.676 v 0 c -2.047,-17.061 2.646,-33.017 13.214,-44.926 v 0 c 10.129,-11.418 24.933,-18.234 39.598,-18.232 v 0 c 1.175,0 2.339,0.041 3.49,0.126 v 0 c -8.049,0.572 -15.388,4.209 -20.856,10.385 v 0 c -6.828,7.713 -9.817,18.281 -8.416,29.76 v 0 c 2.847,23.294 27.187,41.984 58.001,65.646 v 0 c 12.592,9.67 26.862,20.628 41.259,33.109 v 0 c 29.599,25.648 36.146,47.731 36.429,61.739 v 0 c 0.233,11.598 -3.82,22.183 -11.12,29.043 v 0 c -4.573,4.303 -13.274,8.901 -23.984,8.901 v 0 c -1.109,0 -2.211,-0.048 -3.304,-0.145"
         id="path146" /></clipPath><linearGradient
       x1="0"
       y1="0"
       x2="1"
       y2="0"
       gradientUnits="userSpaceOnUse"
       gradientTransform="matrix(144.08479,-31.322851,-31.322851,-144.08479,59.150574,344.19534)"
       spreadMethod="pad"
       id="linearGradient164"><stop
         style="stop-opacity:1;stop-color:#ffffff"
         offset="0"
         id="stop158" /><stop
         style="stop-opacity:0;stop-color:#ffffff"
         offset="0.91954023"
         id="stop160" /><stop
         style="stop-opacity:0;stop-color:#ffffff"
         offset="1"
         id="stop162" /></linearGradient><mask
       maskUnits="userSpaceOnUse"
       x="0"
       y="0"
       width="1"
       height="1"
       id="mask166"><g
         id="g176"><g
           id="g174"><g
             id="g172"><g
               id="g170"><path
                 d="M -32768,32767 H 32767 V -32768 H -32768 Z"
                 style="fill:url(#linearGradient164);stroke:none"
                 id="path168" /></g></g></g></g></mask><linearGradient
       x1="0"
       y1="0"
       x2="1"
       y2="0"
       gradientUnits="userSpaceOnUse"
       gradientTransform="matrix(144.08479,-31.322851,-31.322851,-144.08479,59.150574,344.19534)"
       spreadMethod="pad"
       id="linearGradient188"><stop
         style="stop-opacity:1;stop-color:#ffffff"
         offset="0"
         id="stop182" /><stop
         style="stop-opacity:1;stop-color:#ffffff"
         offset="0.91954023"
         id="stop184" /><stop
         style="stop-opacity:1;stop-color:#ffffff"
         offset="1"
         id="stop186" /></linearGradient><clipPath
       clipPathUnits="userSpaceOnUse"
       id="clipPath198"><path
         d="m 331.741,374.591 c 6.366,-7.738 5.323,-19.044 4.133,-25.096 v 0 C 331.67,328.1 315.13,314.438 287.733,291.802 v 0 c -5.016,-4.143 -10.204,-8.427 -15.829,-13.179 v 0 c -11.002,-9.295 -26.736,-28.139 -15.311,-53.809 v 0 c 7.468,10.279 21.153,21.976 40.171,38.227 v 0 c 4.75,4.059 9.845,8.413 15.275,13.111 v 0 c 30.474,26.374 39.527,40.715 40.365,63.94 v 0 c 0.635,17.594 -8.411,31.272 -23.904,37.582 v 0 c 1.196,-0.883 2.276,-1.911 3.241,-3.083"
         id="path196" /></clipPath><linearGradient
       x1="0"
       y1="0"
       x2="1"
       y2="0"
       gradientUnits="userSpaceOnUse"
       gradientTransform="matrix(-96.437004,5.8858457,5.8858457,96.437004,432.42673,292.70621)"
       spreadMethod="pad"
       id="linearGradient214"><stop
         style="stop-opacity:1;stop-color:#ffffff"
         offset="0"
         id="stop208" /><stop
         style="stop-opacity:0;stop-color:#ffffff"
         offset="0.91954023"
         id="stop210" /><stop
         style="stop-opacity:0;stop-color:#ffffff"
         offset="1"
         id="stop212" /></linearGradient><mask
       maskUnits="userSpaceOnUse"
       x="0"
       y="0"
       width="1"
       height="1"
       id="mask216"><g
         id="g226"><g
           id="g224"><g
             id="g222"><g
               id="g220"><path
                 d="M -32768,32767 H 32767 V -32768 H -32768 Z"
                 style="fill:url(#linearGradient214);stroke:none"
                 id="path218" /></g></g></g></g></mask><linearGradient
       x1="0"
       y1="0"
       x2="1"
       y2="0"
       gradientUnits="userSpaceOnUse"
       gradientTransform="matrix(-96.437004,5.8858457,5.8858457,96.437004,432.42673,292.70621)"
       spreadMethod="pad"
       id="linearGradient238"><stop
         style="stop-opacity:1;stop-color:#ffffff"
         offset="0"
         id="stop232" /><stop
         style="stop-opacity:1;stop-color:#ffffff"
         offset="0.91954023"
         id="stop234" /><stop
         style="stop-opacity:1;stop-color:#ffffff"
         offset="1"
         id="stop236" /></linearGradient><clipPath
       clipPathUnits="userSpaceOnUse"
       id="clipPath248"><path
         d="m 276.348,423.734 c 6.824,-0.106 12.556,-3.123 15.378,-8.11 v 0 c 9.285,-16.359 -5.617,-32.49 -32.67,-53.216 v 0 c -8.282,-6.345 -16.644,-12.475 -24.73,-18.404 v 0 c -41.662,-30.543 -77.642,-56.921 -82.289,-95.676 v 0 c -2.047,-17.061 2.646,-33.017 13.214,-44.926 v 0 c 10.129,-11.418 24.933,-18.234 39.598,-18.232 v 0 c 1.175,0 2.339,0.041 3.49,0.126 v 0 c -8.049,0.572 -15.388,4.209 -20.856,10.385 v 0 c -6.828,7.713 -9.817,18.281 -8.416,29.76 v 0 c 2.847,23.294 27.187,41.984 58.001,65.646 v 0 c 12.592,9.67 26.862,20.628 41.259,33.109 v 0 c 29.599,25.648 36.146,47.731 36.429,61.739 v 0 c 0.233,11.598 -3.82,22.183 -11.12,29.043 v 0 c -4.573,4.303 -13.274,8.901 -23.984,8.901 v 0 c -1.109,0 -2.211,-0.048 -3.304,-0.145"
         id="path246" /></clipPath><linearGradient
       x1="0"
       y1="0"
       x2="1"
       y2="0"
       gradientUnits="userSpaceOnUse"
       gradientTransform="matrix(-108.20898,25.354494,25.354494,108.20898,381.14813,271.82312)"
       spreadMethod="pad"
       id="linearGradient264"><stop
         style="stop-opacity:1;stop-color:#ffffff"
         offset="0"
         id="stop258" /><stop
         style="stop-opacity:0;stop-color:#ffffff"
         offset="0.91954023"
         id="stop260" /><stop
         style="stop-opacity:0;stop-color:#ffffff"
         offset="1"
         id="stop262" /></linearGradient><mask
       maskUnits="userSpaceOnUse"
       x="0"
       y="0"
       width="1"
       height="1"
       id="mask266"><g
         id="g276"><g
           id="g274"><g
             id="g272"><g
               id="g270"><path
                 d="M -32768,32767 H 32767 V -32768 H -32768 Z"
                 style="fill:url(#linearGradient264);stroke:none"
                 id="path268" /></g></g></g></g></mask><linearGradient
       x1="0"
       y1="0"
       x2="1"
       y2="0"
       gradientUnits="userSpaceOnUse"
       gradientTransform="matrix(-108.20898,25.354494,25.354494,108.20898,381.14813,271.82312)"
       spreadMethod="pad"
       id="linearGradient288"><stop
         style="stop-opacity:1;stop-color:#ffffff"
         offset="0"
         id="stop282" /><stop
         style="stop-opacity:1;stop-color:#ffffff"
         offset="0.91954023"
         id="stop284" /><stop
         style="stop-opacity:1;stop-color:#ffffff"
         offset="1"
         id="stop286" /></linearGradient><clipPath
       clipPathUnits="userSpaceOnUse"
       id="clipPath298"><path
         d="m 229.669,404.73 -87.618,-87.619 c -5.423,-5.423 -8.41,-12.645 -8.41,-20.335 v 0 c 0,-7.691 2.987,-14.912 8.41,-20.336 v 0 l 87.618,-87.619 c 5.418,-5.415 12.64,-8.398 20.337,-8.398 v 0 c 7.695,0 14.917,2.983 20.335,8.398 v 0 l 87.607,87.622 c 5.423,5.413 8.41,12.633 8.41,20.333 v 0 c 0,7.699 -2.987,14.92 -8.412,20.335 v 0 l -87.603,87.616 c -5.44,5.427 -12.662,8.416 -20.337,8.416 v 0 c -7.689,0 -14.911,-2.988 -20.337,-8.413 m 5.813,-210.083 -87.608,87.607 c -7.996,8.012 -7.994,21.036 0.001,29.032 v 0 l 87.611,87.623 c 3.884,3.869 9.04,6 14.52,6 v 0 c 5.485,0 10.639,-2.133 14.508,-6.004 v 0 l 87.62,-87.619 c 3.872,-3.871 6.004,-9.025 6.004,-14.51 v 0 c 0,-5.485 -2.132,-10.638 -6.004,-14.51 v 0 L 264.52,194.651 c -3.859,-3.874 -9.014,-6.007 -14.514,-6.007 v 0 c -5.495,0 -10.653,2.132 -14.524,6.003"
         id="path296" /></clipPath><linearGradient
       x1="0"
       y1="0"
       x2="1"
       y2="0"
       gradientUnits="userSpaceOnUse"
       gradientTransform="matrix(120.38983,-34.110466,-34.110466,-120.38983,39.261902,356.49051)"
       spreadMethod="pad"
       id="linearGradient314"><stop
         style="stop-opacity:1;stop-color:#ffffff"
         offset="0"
         id="stop308" /><stop
         style="stop-opacity:0;stop-color:#ffffff"
         offset="0.94484915"
         id="stop310" /><stop
         style="stop-opacity:0;stop-color:#ffffff"
         offset="1"
         id="stop312" /></linearGradient><mask
       maskUnits="userSpaceOnUse"
       x="0"
       y="0"
       width="1"
       height="1"
       id="mask316"><g
         id="g326"><g
           id="g324"><g
             id="g322"><g
               id="g320"><path
                 d="M -32768,32767 H 32767 V -32768 H -32768 Z"
                 style="fill:url(#linearGradient314);stroke:none"
                 id="path318" /></g></g></g></g></mask><linearGradient
       x1="0"
       y1="0"
       x2="1"
       y2="0"
       gradientUnits="userSpaceOnUse"
       gradientTransform="matrix(120.38983,-34.110466,-34.110466,-120.38983,39.261902,356.49051)"
       spreadMethod="pad"
       id="linearGradient338"><stop
         style="stop-opacity:1;stop-color:#ffffff"
         offset="0"
         id="stop332" /><stop
         style="stop-opacity:1;stop-color:#ffffff"
         offset="0.94484915"
         id="stop334" /><stop
         style="stop-opacity:1;stop-color:#ffffff"
         offset="1"
         id="stop336" /></linearGradient><clipPath
       clipPathUnits="userSpaceOnUse"
       id="clipPath348"><path
         d="m 229.669,404.73 -87.618,-87.619 c -5.423,-5.423 -8.41,-12.645 -8.41,-20.335 v 0 c 0,-7.691 2.987,-14.912 8.41,-20.336 v 0 l 87.618,-87.619 c 5.418,-5.415 12.64,-8.398 20.337,-8.398 v 0 c 7.695,0 14.917,2.983 20.335,8.398 v 0 l 87.607,87.622 c 5.423,5.413 8.41,12.633 8.41,20.333 v 0 c 0,7.699 -2.987,14.92 -8.412,20.335 v 0 l -87.603,87.616 c -5.44,5.427 -12.662,8.416 -20.337,8.416 v 0 c -7.689,0 -14.911,-2.988 -20.337,-8.413 m 5.813,-210.083 -87.608,87.607 c -7.996,8.012 -7.994,21.036 0.001,29.032 v 0 l 87.611,87.623 c 3.884,3.869 9.04,6 14.52,6 v 0 c 5.485,0 10.639,-2.133 14.508,-6.004 v 0 l 87.62,-87.619 c 3.872,-3.871 6.004,-9.025 6.004,-14.51 v 0 c 0,-5.485 -2.132,-10.638 -6.004,-14.51 v 0 L 264.52,194.651 c -3.859,-3.874 -9.014,-6.007 -14.514,-6.007 v 0 c -5.495,0 -10.653,2.132 -14.524,6.003"
         id="path346" /></clipPath><linearGradient
       x1="0"
       y1="0"
       x2="1"
       y2="0"
       gradientUnits="userSpaceOnUse"
       gradientTransform="matrix(-109.29821,15.096389,15.096389,109.29821,455.85736,268.34949)"
       spreadMethod="pad"
       id="linearGradient364"><stop
         style="stop-opacity:1;stop-color:#ffffff"
         offset="0"
         id="stop358" /><stop
         style="stop-opacity:1;stop-color:#ffffff"
         offset="0.10433591"
         id="stop360" /><stop
         style="stop-opacity:0;stop-color:#ffffff"
         offset="1"
         id="stop362" /></linearGradient><mask
       maskUnits="userSpaceOnUse"
       x="0"
       y="0"
       width="1"
       height="1"
       id="mask366"><g
         id="g376"><g
           id="g374"><g
             id="g372"><g
               id="g370"><path
                 d="M -32768,32767 H 32767 V -32768 H -32768 Z"
                 style="fill:url(#linearGradient364);stroke:none"
                 id="path368" /></g></g></g></g></mask><linearGradient
       x1="0"
       y1="0"
       x2="1"
       y2="0"
       gradientUnits="userSpaceOnUse"
       gradientTransform="matrix(-109.29821,15.096389,15.096389,109.29821,455.85736,268.34949)"
       spreadMethod="pad"
       id="linearGradient388"><stop
         style="stop-opacity:1;stop-color:#ffffff"
         offset="0"
         id="stop382" /><stop
         style="stop-opacity:1;stop-color:#ffffff"
         offset="0.10433591"
         id="stop384" /><stop
         style="stop-opacity:1;stop-color:#ffffff"
         offset="1"
         id="stop386" /></linearGradient></defs><sodipodi:namedview
     inkscape:document-rotation="0"
     pagecolor="#ffffff"
     bordercolor="#666666"
     borderopacity="1"
     objecttolerance="10"
     gridtolerance="10"
     guidetolerance="10"
     inkscape:pageopacity="0"
     inkscape:pageshadow="2"
     inkscape:window-width="1280"
     inkscape:window-height="923"
     id="namedview4"
     showgrid="false"
     inkscape:zoom="0.50805621"
     inkscape:cx="119.78267"
     inkscape:cy="158.14346"
     inkscape:window-x="0"
     inkscape:window-y="27"
     inkscape:window-maximized="1"
     inkscape:current-layer="g10" /><g
     id="g10"
     inkscape:groupmode="layer"
     inkscape:label="3410491"
     transform="matrix(1.3333333,0,0,-1.3333333,-173.92466,570.49199)"><g
       id="g26"><g
         id="g28"><g
           id="g34"><g
             id="g36"><path
               d="M 227.408,406.991 139.79,319.372 c -12.462,-12.461 -12.462,-32.73 0,-45.192 v 0 l 87.618,-87.62 c 6.225,-6.223 14.405,-9.336 22.597,-9.336 v 0 c 8.18,0 16.372,3.113 22.597,9.336 v 0 l 87.605,87.62 c 6.237,6.224 9.349,14.417 9.349,22.596 v 0 c 0,8.18 -3.112,16.372 -9.349,22.596 v 0 l -87.605,87.619 c -6.038,6.025 -14.059,9.35 -22.597,9.35 v 0 c -8.539,0 -16.571,-3.325 -22.597,-9.35 m 10.335,-210.083 -87.606,87.605 c -6.756,6.77 -6.756,17.756 0,24.513 v 0 l 87.606,87.618 c 3.285,3.272 7.634,5.066 12.262,5.066 v 0 c 4.627,0 8.977,-1.794 12.249,-5.066 v 0 l 87.619,-87.618 c 6.756,-6.757 6.756,-17.743 0,-24.499 v 0 l -87.619,-87.619 c -3.259,-3.271 -7.622,-5.068 -12.249,-5.068 v 0 c -4.642,0 -8.99,1.797 -12.262,5.068"
               style="fill:url(#linearGradient44);stroke:none"
               id="path46" /></g></g></g></g><g
       id="g48"><g
         id="g50"><g
           id="g56"><g
             id="g58"><path
               d="m 314.568,377.677 c 17.682,0.077 19.803,-15.141 17.391,-27.411 v 0 c -4.654,-23.685 -26.39,-37.983 -62.629,-68.596 v 0 c -15.737,-13.294 -29.87,-36.481 -13.033,-64.942 v 0 c 6.602,13.479 26.893,29.183 58.352,56.408 v 0 c 30.485,26.381 40.833,41.595 41.743,66.813 v 0 c 0.853,23.661 -14.757,42.514 -42.152,45.207 v 0 z"
               style="fill:url(#linearGradient66);stroke:none"
               id="path68" /></g></g></g></g><g
       id="g70"><g
         id="g72"><g
           id="g78"><g
             id="g80"><path
               d="m 250.403,416.327 c 3.406,-0.027 6.704,-0.598 9.843,-1.662 v 0 c 12.529,7.861 24.113,5.878 28.009,-1.011 v 0 c 7.474,-13.167 -4.734,-27.478 -31.627,-48.078 v 0 C 206.05,326.821 153.875,297.162 148.076,248.804 v 0 c -6.145,-51.231 44.74,-80.41 79.253,-62.164 v 0 l -5.014,5.015 c -21.532,-9.031 -42.374,8.006 -39.287,33.302 v 0 c 3.75,30.684 48.809,53.651 97.912,96.224 v 0 c 49.117,42.559 41.934,81.195 25.429,96.702 v 0 c -5.612,5.283 -15.394,9.986 -26.717,9.986 v 0 c -9.204,-0.001 -19.427,-3.11 -29.249,-11.542"
               style="fill:url(#linearGradient88);stroke:none"
               id="path90" /></g></g></g></g><g
       id="g92"><g
         id="g94"
         clip-path="url(#clipPath98)"><g
           id="g100"><g
             id="g102" /><g
             id="g128"
             mask="url(#mask116)"><g
               id="g130"><path
                 d="m 331.741,374.591 c 6.366,-7.738 5.323,-19.044 4.133,-25.096 v 0 C 331.67,328.1 315.13,314.438 287.733,291.802 v 0 c -5.016,-4.143 -10.204,-8.427 -15.829,-13.179 v 0 c -11.002,-9.295 -26.736,-28.139 -15.311,-53.809 v 0 c 7.468,10.279 21.153,21.976 40.171,38.227 v 0 c 4.75,4.059 9.845,8.413 15.275,13.111 v 0 c 30.474,26.374 39.527,40.715 40.365,63.94 v 0 c 0.635,17.594 -8.411,31.272 -23.904,37.582 v 0 c 1.196,-0.883 2.276,-1.911 3.241,-3.083"
                 style="fill:url(#linearGradient138);stroke:none"
                 id="path140" /></g></g></g></g></g><g
       id="g142"><g
         id="g144"
         clip-path="url(#clipPath148)"><g
           id="g150"><g
             id="g152" /><g
             id="g178"
             mask="url(#mask166)"><g
               id="g180"><path
                 d="m 276.348,423.734 c 6.824,-0.106 12.556,-3.123 15.378,-8.11 v 0 c 9.285,-16.359 -5.617,-32.49 -32.67,-53.216 v 0 c -8.282,-6.345 -16.644,-12.475 -24.73,-18.404 v 0 c -41.662,-30.543 -77.642,-56.921 -82.289,-95.676 v 0 c -2.047,-17.061 2.646,-33.017 13.214,-44.926 v 0 c 10.129,-11.418 24.933,-18.234 39.598,-18.232 v 0 c 1.175,0 2.339,0.041 3.49,0.126 v 0 c -8.049,0.572 -15.388,4.209 -20.856,10.385 v 0 c -6.828,7.713 -9.817,18.281 -8.416,29.76 v 0 c 2.847,23.294 27.187,41.984 58.001,65.646 v 0 c 12.592,9.67 26.862,20.628 41.259,33.109 v 0 c 29.599,25.648 36.146,47.731 36.429,61.739 v 0 c 0.233,11.598 -3.82,22.183 -11.12,29.043 v 0 c -4.573,4.303 -13.274,8.901 -23.984,8.901 v 0 c -1.109,0 -2.211,-0.048 -3.304,-0.145"
                 style="fill:url(#linearGradient188);stroke:none"
                 id="path190" /></g></g></g></g></g><g
       id="g192"><g
         id="g194"
         clip-path="url(#clipPath198)"><g
           id="g200"><g
             id="g202" /><g
             id="g228"
             mask="url(#mask216)"><g
               id="g230"><path
                 d="m 331.741,374.591 c 6.366,-7.738 5.323,-19.044 4.133,-25.096 v 0 C 331.67,328.1 315.13,314.438 287.733,291.802 v 0 c -5.016,-4.143 -10.204,-8.427 -15.829,-13.179 v 0 c -11.002,-9.295 -26.736,-28.139 -15.311,-53.809 v 0 c 7.468,10.279 21.153,21.976 40.171,38.227 v 0 c 4.75,4.059 9.845,8.413 15.275,13.111 v 0 c 30.474,26.374 39.527,40.715 40.365,63.94 v 0 c 0.635,17.594 -8.411,31.272 -23.904,37.582 v 0 c 1.196,-0.883 2.276,-1.911 3.241,-3.083"
                 style="fill:url(#linearGradient238);stroke:none"
                 id="path240" /></g></g></g></g></g><g
       id="g242"><g
         id="g244"
         clip-path="url(#clipPath248)"><g
           id="g250"><g
             id="g252" /><g
             id="g278"
             mask="url(#mask266)"><g
               id="g280"><path
                 d="m 276.348,423.734 c 6.824,-0.106 12.556,-3.123 15.378,-8.11 v 0 c 9.285,-16.359 -5.617,-32.49 -32.67,-53.216 v 0 c -8.282,-6.345 -16.644,-12.475 -24.73,-18.404 v 0 c -41.662,-30.543 -77.642,-56.921 -82.289,-95.676 v 0 c -2.047,-17.061 2.646,-33.017 13.214,-44.926 v 0 c 10.129,-11.418 24.933,-18.234 39.598,-18.232 v 0 c 1.175,0 2.339,0.041 3.49,0.126 v 0 c -8.049,0.572 -15.388,4.209 -20.856,10.385 v 0 c -6.828,7.713 -9.817,18.281 -8.416,29.76 v 0 c 2.847,23.294 27.187,41.984 58.001,65.646 v 0 c 12.592,9.67 26.862,20.628 41.259,33.109 v 0 c 29.599,25.648 36.146,47.731 36.429,61.739 v 0 c 0.233,11.598 -3.82,22.183 -11.12,29.043 v 0 c -4.573,4.303 -13.274,8.901 -23.984,8.901 v 0 c -1.109,0 -2.211,-0.048 -3.304,-0.145"
                 style="fill:url(#linearGradient288);stroke:none"
                 id="path290" /></g></g></g></g></g><g
       id="g292"><g
         id="g294"
         clip-path="url(#clipPath298)"><g
           id="g300"><g
             id="g302" /><g
             id="g328"
             mask="url(#mask316)"><g
               id="g330"><path
                 d="m 229.669,404.73 -87.618,-87.619 c -5.423,-5.423 -8.41,-12.645 -8.41,-20.335 v 0 c 0,-7.691 2.987,-14.912 8.41,-20.336 v 0 l 87.618,-87.619 c 5.418,-5.415 12.64,-8.398 20.337,-8.398 v 0 c 7.695,0 14.917,2.983 20.335,8.398 v 0 l 87.607,87.622 c 5.423,5.413 8.41,12.633 8.41,20.333 v 0 c 0,7.699 -2.987,14.92 -8.412,20.335 v 0 l -87.603,87.616 c -5.44,5.427 -12.662,8.416 -20.337,8.416 v 0 c -7.689,0 -14.911,-2.988 -20.337,-8.413 m 5.813,-210.083 -87.608,87.607 c -7.996,8.012 -7.994,21.036 0.001,29.032 v 0 l 87.611,87.623 c 3.884,3.869 9.04,6 14.52,6 v 0 c 5.485,0 10.639,-2.133 14.508,-6.004 v 0 l 87.62,-87.619 c 3.872,-3.871 6.004,-9.025 6.004,-14.51 v 0 c 0,-5.485 -2.132,-10.638 -6.004,-14.51 v 0 L 264.52,194.651 c -3.859,-3.874 -9.014,-6.007 -14.514,-6.007 v 0 c -5.495,0 -10.653,2.132 -14.524,6.003"
                 style="fill:url(#linearGradient338);stroke:none"
                 id="path340" /></g></g></g></g></g><g
       id="g342"
       style="fill:none"><g
         id="g344"
         clip-path="url(#clipPath348)"
         style="fill:none"><g
           id="g350"
           style="fill:none"><g
             id="g352"
             style="fill:none" /><g
             id="g378"
             mask="url(#mask366)"
             style="fill:none"><g
               id="g380"
               style="fill:none"><path
                 d="m 229.669,404.73 -87.618,-87.619 c -5.423,-5.423 -8.41,-12.645 -8.41,-20.335 v 0 c 0,-7.691 2.987,-14.912 8.41,-20.336 v 0 l 87.618,-87.619 c 5.418,-5.415 12.64,-8.398 20.337,-8.398 v 0 c 7.695,0 14.917,2.983 20.335,8.398 v 0 l 87.607,87.622 c 5.423,5.413 8.41,12.633 8.41,20.333 v 0 c 0,7.699 -2.987,14.92 -8.412,20.335 v 0 l -87.603,87.616 c -5.44,5.427 -12.662,8.416 -20.337,8.416 v 0 c -7.689,0 -14.911,-2.988 -20.337,-8.413 m 5.813,-210.083 -87.608,87.607 c -7.996,8.012 -7.994,21.036 0.001,29.032 v 0 l 87.611,87.623 c 3.884,3.869 9.04,6 14.52,6 v 0 c 5.485,0 10.639,-2.133 14.508,-6.004 v 0 l 87.62,-87.619 c 3.872,-3.871 6.004,-9.025 6.004,-14.51 v 0 c 0,-5.485 -2.132,-10.638 -6.004,-14.51 v 0 L 264.52,194.651 c -3.859,-3.874 -9.014,-6.007 -14.514,-6.007 v 0 c -5.495,0 -10.653,2.132 -14.524,6.003"
                 style="fill:none;stroke:none"
                 id="path390" /></g></g></g></g></g></g></svg>
